<?xml version="1.0" encoding="utf-8"?>
<!-- Generator: Adobe Illustrator 25.2.0, SVG Export Plug-In . SVG Version: 6.00 Build 0)  -->
<svg version="1.1" id="Layer_1" xmlns="http://www.w3.org/2000/svg" xmlns:xlink="http://www.w3.org/1999/xlink" x="0px" y="0px"
	 viewBox="0 0 106.1 107.2" style="enable-background:new 0 0 106.1 107.2;" xml:space="preserve">
<style type="text/css">
	.st0{fill:#F5F5F5;}
	.st1{fill:#EBEBEB;}
	.st2{fill:#E0E0E0;}
	.st3{fill:#FAFAFA;}
	.st4{fill:#FFFFFF;}
	.st5{fill:#263238;}
	.st6{fill:#C9252F;}
	.st7{fill:none;}
	.st8{font-family:'Roboto-Light';}
	.st9{font-size:1.1222px;}
	.st10{fill:#C9C9C9;}
	.st11{fill:#455A64;}
	.st12{fill:#FFBE9D;}
	.st13{fill:#EB996E;}
	.st14{opacity:0.3;}
	.st15{opacity:0.6;}
</style>
<g id="freepik--background-complete--inject-46">
	<rect x="14.4" y="27.4" class="st0" width="23.8" height="75.4"/>
	<rect x="26.3" y="27.4" class="st1" width="11.9" height="75.1"/>
	<rect x="17.1" y="20" class="st0" width="8.4" height="7.4"/>
	<rect x="23.5" y="20" class="st1" width="2" height="7.4"/>
	<polyline class="st2" points="12.4,27.4 12.4,27 38.9,27 38.9,27.4 	"/>
	<rect x="19.1" y="30.6" class="st3" width="2" height="4.2"/>
	<path class="st2" d="M26.3,36.5c0,0-2.7,0.1-5.9,0.1s-5.9,0-5.9-0.1c0,0,2.7-0.1,5.9-0.1S26.3,36.5,26.3,36.5z"/>
	<rect x="31.1" y="30.6" class="st2" width="2" height="4.2"/>
	<path class="st2" d="M38.3,36.5c0,0-2.7,0.1-5.9,0.1s-5.9,0-5.9-0.1c0,0,2.7-0.1,5.9-0.1S38.3,36.5,38.3,36.5z"/>
	<rect x="31.1" y="39" class="st2" width="2" height="4.2"/>
	<path class="st2" d="M38.3,45c0,0-2.7,0.1-5.9,0.1s-5.9,0-5.9-0.1c0,0,2.7-0.1,5.9-0.1S38.3,44.9,38.3,45z"/>
	<rect x="31.1" y="47.7" class="st2" width="2" height="4.2"/>
	<path class="st2" d="M38.3,53.6c0,0-2.7,0.1-5.9,0.1s-5.9,0-5.9-0.1c0,0,2.7-0.1,5.9-0.1S38.3,53.6,38.3,53.6z"/>
	<rect x="31.1" y="56.4" class="st2" width="2" height="4.2"/>
	<path class="st2" d="M38.3,62.3c0,0-2.7,0.1-5.9,0.1s-5.9,0-5.9-0.1c0,0,2.7-0.1,5.9-0.1S38.3,62.3,38.3,62.3z"/>
	<rect x="31.1" y="64.8" class="st2" width="2" height="4.2"/>
	<path class="st2" d="M38.3,70.8c0,0-2.7,0.1-5.9,0.1s-5.9,0-5.9-0.1c0,0,2.7-0.1,5.9-0.1S38.3,70.7,38.3,70.8z"/>
	<rect x="31.1" y="73.3" class="st2" width="2" height="4.2"/>
	<rect x="31.1" y="81.9" class="st2" width="2" height="4.2"/>
	<path class="st2" d="M38.3,79.2c0,0-2.7,0.1-5.9,0.1s-5.9,0-5.9-0.1c0,0,2.7-0.1,5.9-0.1S38.3,79.2,38.3,79.2z"/>
	<rect x="19.1" y="39.2" class="st3" width="2" height="4.2"/>
	<path class="st2" d="M26.3,45.1c0,0-2.7,0.1-5.9,0.1s-5.9,0-5.9-0.1c0,0,2.7-0.1,5.9-0.1S26.3,45,26.3,45.1z"/>
	<rect x="19.1" y="47.7" class="st3" width="2" height="4.2"/>
	<path class="st2" d="M26.3,53.6c0,0-2.7,0.1-5.9,0.1s-5.9,0-5.9-0.1c0,0,2.7-0.1,5.9-0.1S26.3,53.6,26.3,53.6z"/>
	<rect x="19.1" y="56.3" class="st3" width="2" height="4.2"/>
	<path class="st2" d="M26.3,62.2c0,0-2.7,0.1-5.9,0.1s-5.9,0-5.9-0.1c0,0,2.7-0.1,5.9-0.1S26.3,62.2,26.3,62.2z"/>
	<rect x="19.1" y="64.8" class="st3" width="2" height="4.2"/>
	<path class="st2" d="M26.3,70.8c0,0-2.7,0.1-5.9,0.1s-5.9,0-5.9-0.1c0,0,2.7-0.1,5.9-0.1S26.3,70.7,26.3,70.8z"/>
	<rect x="19.1" y="73.4" class="st3" width="2" height="4.2"/>
	<path class="st2" d="M26.3,79.3c0,0-2.7,0.1-5.9,0.1s-5.9,0-5.9-0.1s2.7-0.1,5.9-0.1S26.3,79.2,26.3,79.3z"/>
	<rect x="19.1" y="82" class="st3" width="2" height="4.2"/>
	<polygon class="st1" points="31.7,102.6 4.2,102.6 4,59.2 31.6,59.2 	"/>
	<rect x="17.8" y="59.2" class="st2" width="13.7" height="43.4"/>
	<rect x="7.2" y="50.6" class="st1" width="9.7" height="8.6"/>
	<rect x="14.6" y="50.6" class="st2" width="2.3" height="8.6"/>
	<rect x="1.8" y="58.7" class="st2" width="30.6" height="0.5"/>
	<rect x="9.5" y="62.9" class="st4" width="2.3" height="4.9"/>
	<path class="st2" d="M17.8,69.7c0,0-3.1,0.1-6.9,0.1S4,69.8,4,69.7s3.1-0.1,6.9-0.1S17.8,69.7,17.8,69.7z"/>
	<rect x="23.4" y="62.9" class="st0" width="2.3" height="4.9"/>
	<path class="st1" d="M31.7,69.7c0,0-3.1,0.1-6.9,0.1s-6.9,0-6.9-0.1s3.1-0.1,6.9-0.1S31.7,69.7,31.7,69.7z"/>
	<rect x="23.4" y="72.6" class="st0" width="2.3" height="4.9"/>
	<path class="st1" d="M31.7,79.5c0,0-3.1,0.1-6.9,0.1s-6.9,0-6.9-0.1c0,0,3.1-0.1,6.9-0.1S31.7,79.4,31.7,79.5z"/>
	<rect x="23.4" y="82.6" class="st0" width="2.3" height="4.9"/>
	<path class="st1" d="M31.7,89.5c0,0-3.1,0.1-6.9,0.1s-6.9,0-6.9-0.1c0,0,3.1-0.1,6.9-0.1S31.7,89.4,31.7,89.5z"/>
	<rect x="23.4" y="92.7" class="st0" width="2.3" height="4.9"/>
	<path class="st1" d="M31.7,99.5c0,0-3.1,0.1-6.9,0.1s-6.9,0-6.9-0.1s3.1-0.1,6.9-0.1S31.7,99.5,31.7,99.5z"/>
	<rect x="9.5" y="72.8" class="st4" width="2.3" height="4.9"/>
	<path class="st2" d="M17.8,79.6c0,0-3.1,0.1-6.9,0.1S4,79.6,4,79.6c0,0,3.1-0.1,6.9-0.1S17.8,79.5,17.8,79.6z"/>
	<rect x="9.5" y="82.6" class="st4" width="2.3" height="4.9"/>
	<path class="st2" d="M17.8,89.5c0,0-3.1,0.1-6.9,0.1S4,89.5,4,89.5c0-0.1,3.1-0.1,6.9-0.1S17.8,89.4,17.8,89.5z"/>
	<rect x="9.5" y="92.6" class="st4" width="2.3" height="4.9"/>
	<path class="st2" d="M17.8,99.4c0,0-3.1,0.1-6.9,0.1S4,99.4,4,99.4s3.1-0.1,6.9-0.1S17.8,99.3,17.8,99.4z"/>
	<rect x="56.9" y="66.7" class="st1" width="27.3" height="36"/>
	<rect x="71.4" y="66.7" class="st2" width="12.8" height="36"/>
	<rect x="62.7" y="71.5" class="st0" width="2.5" height="5.9"/>
	<rect x="62.7" y="94.8" class="st0" width="2.5" height="5.9"/>
	<path class="st0" d="M71.4,79.8c0,0.1-3.2,0.1-7.2,0.1c-4,0-7.2-0.1-7.2-0.1c0-0.1,3.2-0.1,7.2-0.1C68.2,79.7,71.4,79.8,71.4,79.8z
		"/>
	<rect x="62.7" y="83.3" class="st0" width="2.5" height="5.9"/>
	<path class="st0" d="M71.4,91.6c0,0.1-3.2,0.1-7.2,0.1c-4,0-7.2,0-7.2-0.1s3.2-0.1,7.2-0.1C68.2,91.5,71.4,91.5,71.4,91.6z"/>
	<rect x="74.2" y="71.5" class="st0" width="2.5" height="5.9"/>
	<rect x="79.4" y="71.5" class="st0" width="2.5" height="5.9"/>
	<rect x="74.2" y="82.9" class="st0" width="2.5" height="5.9"/>
	<rect x="79.4" y="82.9" class="st0" width="2.5" height="5.9"/>
	<rect x="74.2" y="94.1" class="st0" width="2.5" height="5.9"/>
	<rect x="79.4" y="94.1" class="st0" width="2.5" height="5.9"/>
	<rect x="54.9" y="65.4" class="st2" width="31.4" height="1.3"/>
	<path class="st1" d="M84.4,66.8c0,0.1-6.1,0.1-13.6,0.1s-13.6,0-13.6-0.1c0-0.1,6.1-0.1,13.6-0.1S84.4,66.7,84.4,66.8z"/>
	<path class="st1" d="M84,14.3c0.1-1-1.2-1.7-2.2-1.8c-0.5,0-1,0-1.4-0.1c-1-0.3-1.4-1.7-2.4-2c-0.7-0.3-1.6,0-2.2,0.3
		s-1.4,0.8-2.2,0.8c-0.7,0-1.4-0.2-2,0.1c-0.5,0.3-0.7,0.8-1.1,1.1C69.9,13,69.4,13,68.9,13c-0.5,0-1,0-1.5,0.3s-0.8,0.7-0.7,1.2
		L84,14.3z"/>
	<path class="st0" d="M103.3,25.5c0.2-1.4-1.8-2.6-3.3-2.8c-0.7-0.1-1.5,0-2.2-0.2c-1.5-0.5-2.1-2.5-3.6-3.1c-1.1-0.5-2.4,0-3.4,0.5
		c-1.1,0.6-2.1,1.2-3.3,1.3c-1,0.1-2.2-0.3-3.1,0.2c-0.7,0.4-1,1.1-1.7,1.6c-0.6,0.5-1.4,0.6-2.2,0.6c-0.8,0-1.5,0-2.2,0.3
		c-0.7,0.3-1.3,1-1.1,1.8L103.3,25.5z"/>
	<path class="st0" d="M17.9,11.7c0.1-0.7-0.9-1.4-1.7-1.4c-0.4,0-0.8,0-1.1-0.1C14.3,10,14,8.9,13.2,8.6c-0.6-0.2-1.2,0-1.7,0.3
		C11,9.1,10.4,9.5,9.8,9.5c-0.5,0-1.1-0.2-1.6,0.1c-0.3,0.2-0.5,0.6-0.8,0.8c-0.3,0.2-0.7,0.3-1.1,0.3c-0.4,0-0.8,0-1.1,0.2
		c-0.3,0.2-0.6,0.5-0.6,0.9L17.9,11.7z"/>
</g>
<g id="freepik--Floor--inject-46">
	<path class="st5" d="M101.8,102.7c0,0-21.8,0.1-48.7,0.1s-48.7,0-48.7-0.1s21.8-0.1,48.7-0.1S101.8,102.7,101.8,102.7z"/>
</g>
<g id="freepik--Device--inject-46">
	<path class="st5" d="M64.2,102.7H31.8c-3.9,0-7-3.2-7-7l0-81.2c0-3.9,3.2-7,7-7l0,0h32.4c3.9,0,7,3.2,7,7l0,81.2
		C71.3,99.6,68.1,102.7,64.2,102.7L64.2,102.7z"/>
	<path class="st4" d="M64.4,10.3h-6.3c-0.8,0-1.6,0.7-1.5,1.6l0,0v1.1c0,0.8-0.7,1.6-1.5,1.6l0,0H42.9c-0.8,0-1.5-0.7-1.5-1.6v-1.1
		c0-0.8-0.7-1.6-1.5-1.6h-7.7c-2.8,0-4.9,2.2-4.9,4.9l0,0l0,79.2c0,2.8,2.2,4.9,4.9,4.9l32.3,0c2.8,0,4.9-2.2,4.9-4.9l0-79.2
		C69.4,12.5,67.2,10.3,64.4,10.3L64.4,10.3z"/>
	<path class="st5" d="M64.4,10.3h0.2c0.2,0,0.3,0,0.5,0c0.6,0.1,1.3,0.3,1.9,0.6c0.4,0.3,0.8,0.6,1.1,0.9c0.4,0.4,0.7,0.9,0.9,1.5
		c0.3,0.6,0.4,1.3,0.3,2c0,0.7,0,1.5,0,2.3c0,6.6,0,16.1,0,27.9c0,11.7,0,25.8,0,41.3v7.4c0,0.5,0,1-0.2,1.5c-0.1,0.5-0.3,1-0.6,1.4
		s-0.6,0.8-1,1.1c-0.8,0.6-1.8,1.1-2.8,1.1c-1,0-2.1,0-3.1,0h-6.3H42.4h-6.6h-3.3c-1.1,0.1-2.2-0.3-3.2-0.9
		c-0.9-0.6-1.7-1.6-1.9-2.7c-0.2-0.6-0.2-1.1-0.2-1.7v-1.7c0-2.2,0-4.4,0-6.6c0-4.4,0-8.7,0-12.9c0-8.5,0-16.6,0-24.4s0-15.2,0-22.1
		c0-3.5,0-6.8,0-10v-1.2c0-0.2,0-0.4,0-0.6c0-0.2,0-0.4,0.1-0.6c0.2-0.8,0.6-1.5,1-2.1c1-1.2,2.5-1.8,4-1.8h4.3h3.1
		c0.3,0,0.7,0.1,1,0.3c0.3,0.2,0.5,0.5,0.6,0.8c0.1,0.3,0.1,0.6,0.1,1v0.5c0,0.2,0,0.3,0,0.5c0,0.3,0.2,0.6,0.3,0.8
		c0.2,0.3,0.5,0.4,0.8,0.5c0.2,0,0.3,0,0.5,0h2.2l6.5,0h2.9c0.2,0,0.5,0,0.7,0c0.2,0,0.4-0.1,0.6-0.2c0.3-0.2,0.6-0.6,0.7-1
		c0-0.2,0-0.4,0-0.6v-0.6c0-0.2,0-0.4,0-0.6c0-0.2,0.1-0.3,0.2-0.6c0.2-0.3,0.5-0.6,0.8-0.7c0.3-0.1,0.6-0.1,1-0.1h3.2h2L64.4,10.3
		l-0.7,0h-2h-3.2c-0.3,0-0.6,0-1,0.1c-0.3,0.1-0.6,0.3-0.8,0.7c-0.1,0.2-0.2,0.3-0.2,0.5c0,0.2,0,0.4,0,0.6v0.6c0,0.2,0,0.4,0,0.6
		c-0.1,0.4-0.3,0.8-0.7,1c-0.2,0.1-0.4,0.2-0.6,0.2c-0.2,0-0.5,0-0.7,0H43c-0.2,0-0.3,0-0.5,0c-0.3-0.1-0.6-0.3-0.8-0.5
		c-0.2-0.3-0.3-0.6-0.4-0.9c0-0.2,0-0.3,0-0.5v-0.4c0-0.3,0-0.6-0.1-0.9c-0.1-0.3-0.3-0.6-0.6-0.7c-0.3-0.2-0.6-0.3-0.9-0.3h-7.4
		c-1.5-0.1-3,0.6-3.9,1.7c-0.5,0.6-0.8,1.3-1,2c0,0.2-0.1,0.4-0.1,0.6c0,0.3,0,0.4,0,0.6v1.2c0,3.2,0,6.6,0,10c0,6.9,0,14.3,0,22.1
		s0,16,0,24.4v12.9c0,2.2,0,4.4,0,6.6v1.7c0,0.6,0,1.1,0.2,1.7c0.3,1.1,1,2,1.9,2.6c0.9,0.6,2,0.9,3.1,0.9h3.3h6.6h12.9h6.3
		c1,0,2.1,0,3.1,0c1-0.1,2-0.4,2.8-1.1c0.4-0.3,0.7-0.7,1-1.1c0.3-0.4,0.5-0.9,0.6-1.4c0.1-0.5,0.2-1,0.2-1.4v-1.5c0-2,0-3.9,0-5.9
		c0-15.6,0-29.6,0-41.3s0-21.3,0-27.9c0-0.8,0-1.6,0-2.3c0-0.7-0.1-1.4-0.3-2c-0.2-0.6-0.6-1-0.9-1.4c-0.8-0.8-1.8-1.4-3-1.6
		c-0.2,0-0.3,0-0.5,0L64.4,10.3z"/>
	<path class="st5" d="M65.4,18.3c0,0-0.8,0-1.8,0s-1.8,0-1.8,0c0,0,0.8,0,1.8,0S65.4,18.3,65.4,18.3z"/>
	<path class="st5" d="M65.4,19.3c0,0-0.8,0-1.8,0s-1.8,0-1.8,0s0.8,0,1.8,0S65.4,19.2,65.4,19.3z"/>
	<path class="st5" d="M65.4,20.2c0,0-0.8,0-1.8,0c-1,0-1.8,0-1.8,0s0.8,0,1.8,0C64.6,20.2,65.4,20.2,65.4,20.2z"/>
	<path class="st5" d="M32.2,21.3L32.2,21.3h0.3l0.8,0l0,0c0-0.2,0-0.3,0-0.6c0-0.1,0-0.2,0-0.3c0-0.1,0.1-0.2,0.3-0.3
		c0.1,0,0.2,0,0.4,0c0.2,0,0.3,0.2,0.3,0.3c0,0.3,0,0.6,0,0.8l0,0h1l0,0c0-0.4,0-0.8,0-1.2c0-0.1,0-0.2,0-0.3c0-0.1-0.1-0.2-0.1-0.2
		l-0.4-0.4l-0.4-0.4l-0.2-0.2c0-0.1-0.1-0.1-0.2-0.2s-0.2,0-0.2,0c-0.1,0-0.1,0.1-0.2,0.2L33,18.9c-0.2,0.2-0.5,0.5-0.6,0.6
		c0,0.1-0.1,0.3,0,0.3c0,0.1,0,0.3,0,0.3c0,0.2,0,0.4,0,0.6s0,0.3,0,0.3C32.2,21.2,32.2,21.3,32.2,21.3S32.2,21.2,32.2,21.3
		c0-0.2,0-0.3,0-0.4c0-0.1,0-0.3,0-0.6c0-0.1,0-0.2,0-0.3c0-0.1,0-0.1,0-0.2c0-0.1,0-0.1,0.1-0.2c0.2-0.2,0.4-0.4,0.6-0.6l0.3-0.3
		c0.1-0.1,0.1-0.1,0.2-0.2c0.1-0.1,0.2-0.1,0.3-0.1c0.1,0,0.2,0.1,0.3,0.2l0.2,0.2l0.4,0.4l0.4,0.4c0,0,0.1,0.1,0.1,0.1s0,0.1,0,0.2
		c0,0.1,0,0.2,0,0.3c0,0.4,0,0.8,0,1.2v0h0h-1h0v0c0-0.3,0-0.6,0-0.8c0-0.1-0.1-0.2-0.2-0.3c-0.1,0-0.3,0-0.3,0s-0.2,0.1-0.2,0.2
		c0,0.1,0,0.2,0,0.3v0.6h0h-0.8h-0.2C32.3,21.3,32.3,21.3,32.2,21.3z"/>
	<path class="st5" d="M46.3,23.6c0,0.3-0.2,0.4-0.6,0.4h-0.8v-1.5h0.7c0.4,0,0.6,0.2,0.6,0.4c0,0.1-0.1,0.3-0.2,0.3
		C46.2,23.2,46.3,23.4,46.3,23.6z M45.2,22.7v0.4h0.3c0.2,0,0.3-0.1,0.3-0.2c0-0.1-0.1-0.2-0.3-0.2C45.6,22.7,45.2,22.7,45.2,22.7z
		 M45.9,23.5c0-0.1-0.1-0.2-0.3-0.2h-0.4v0.4h0.4C45.8,23.7,45.9,23.6,45.9,23.5L45.9,23.5z"/>
	<path class="st5" d="M46.4,23.4c0-0.3,0.3-0.6,0.6-0.7c0.3,0,0.6,0.3,0.7,0.6c0,0.3-0.3,0.6-0.6,0.7c0,0,0,0,0,0
		C46.7,24,46.4,23.8,46.4,23.4C46.4,23.4,46.4,23.4,46.4,23.4z M47.4,23.4c0-0.2-0.2-0.3-0.3-0.3c-0.2,0-0.3,0.2-0.3,0.3
		c0,0.2,0.1,0.3,0.3,0.3S47.4,23.6,47.4,23.4L47.4,23.4z"/>
	<path class="st5" d="M47.8,23.4c0-0.3,0.3-0.6,0.6-0.7s0.6,0.3,0.7,0.6c0,0.3-0.3,0.6-0.6,0.7c0,0,0,0,0,0
		C48.1,24,47.9,23.8,47.8,23.4L47.8,23.4z M48.8,23.4c0-0.2-0.2-0.3-0.3-0.3c-0.2,0-0.3,0.2-0.3,0.3c0,0.2,0.1,0.3,0.3,0.3
		C48.6,23.7,48.8,23.6,48.8,23.4C48.8,23.4,48.8,23.4,48.8,23.4L48.8,23.4z"/>
	<path class="st5" d="M49.8,23.5l-0.2,0.2V24h-0.3v-1.6h0.3v0.9l0.5-0.5h0.4l-0.5,0.5l0.5,0.7h-0.4L49.8,23.5z"/>
	<path class="st5" d="M50.7,22.5c0-0.1,0.1-0.2,0.2-0.2c0,0,0,0,0,0c0.1,0,0.2,0.1,0.2,0.2c0,0,0,0,0,0c0,0.1-0.1,0.2-0.2,0.2
		C50.8,22.7,50.7,22.6,50.7,22.5L50.7,22.5z M50.8,22.8h0.3V24h-0.3V22.8z"/>
	<path class="st5" d="M52.6,23.3V24h-0.3v-0.6c0-0.2-0.1-0.3-0.2-0.3c-0.1,0-0.3,0.1-0.3,0.3V24h-0.3v-1.2h0.3v0.1
		c0.1-0.1,0.3-0.2,0.4-0.2c0.3,0,0.5,0.2,0.5,0.4C52.6,23.3,52.6,23.3,52.6,23.3z"/>
	<path class="st5" d="M54.1,22.8v1c0,0.4-0.2,0.6-0.6,0.6c-0.2,0-0.4,0-0.6-0.2L53,24c0.1,0.1,0.3,0.1,0.4,0.1
		c0.2,0,0.3-0.1,0.3-0.3v0c-0.1,0.1-0.2,0.2-0.3,0.1c-0.3,0-0.6-0.3-0.6-0.6c0-0.3,0.3-0.6,0.6-0.6l0,0c0.2,0,0.3,0,0.4,0.2v-0.2
		H54.1z M53.8,23.3c0-0.2-0.1-0.3-0.3-0.3c-0.2,0-0.3,0.1-0.3,0.3c0,0.2,0.1,0.3,0.3,0.3h0C53.7,23.7,53.8,23.5,53.8,23.3
		C53.8,23.4,53.8,23.3,53.8,23.3z"/>
	<path class="st6" d="M31.9,43.3h12.8c0.3,0,0.6,0.3,0.6,0.6v11.4c0,0.3-0.3,0.6-0.6,0.6H31.9c-0.3,0-0.6-0.3-0.6-0.6V43.9
		C31.4,43.5,31.6,43.3,31.9,43.3z"/>
	<path class="st2" d="M58.1,47c0,0-2.2,0.1-4.8,0.1s-4.8,0-4.8-0.1c0,0,2.2-0.1,4.8-0.1C55.9,46.9,58.1,46.9,58.1,47z"/>
	<path class="st5" d="M65.6,48.6c0,0-3.9,0.1-8.7,0.1s-8.7,0-8.7-0.1c0,0,3.9-0.1,8.7-0.1C61.8,48.5,65.6,48.6,65.6,48.6z"/>
	<path class="st5" d="M57,50.3c0,0-1.9,0.1-4.3,0.1s-4.3,0-4.3-0.1s1.9-0.1,4.3-0.1C55.1,50.2,57,50.2,57,50.3z"/>
	<path class="st6" d="M49.4,52h7.5c0.7,0,1.4,0.6,1.4,1.4v0.6c0,0.7-0.6,1.4-1.4,1.4h-7.5c-0.7,0-1.4-0.6-1.4-1.4v-0.6
		C48.1,52.6,48.7,52,49.4,52z"/>
	<path class="st4" d="M52.4,53.8c0,0.2-0.1,0.3-0.3,0.3h-0.4v-0.9H52c0.2,0,0.3,0.1,0.3,0.3c0,0.1,0,0.2-0.1,0.2
		C52.3,53.6,52.4,53.7,52.4,53.8z M51.7,53.2v0.3H52c0.1,0,0.2,0,0.2-0.1s-0.1-0.1-0.2-0.1L51.7,53.2L51.7,53.2z M52.2,53.8
		c0-0.1-0.1-0.2-0.2-0.2h-0.3v0.3H52C52.2,53.9,52.2,53.9,52.2,53.8z"/>
	<path class="st4" d="M52.5,53.7c0-0.2,0.2-0.3,0.3-0.3c0.2,0,0.3,0.2,0.3,0.3c0,0.2-0.2,0.3-0.3,0.3l0,0
		C52.7,54,52.5,53.9,52.5,53.7C52.5,53.7,52.5,53.7,52.5,53.7z M53.1,53.7c0-0.1-0.1-0.2-0.2-0.2c-0.1,0-0.2,0.1-0.2,0.2
		c0,0.1,0.1,0.2,0.2,0.2S53.1,53.8,53.1,53.7z"/>
	<path class="st4" d="M53.3,53.7c0-0.2,0.2-0.3,0.3-0.3s0.3,0.2,0.3,0.3c0,0.2-0.2,0.3-0.3,0.3l0,0C53.5,54.1,53.3,53.9,53.3,53.7
		L53.3,53.7z M53.9,53.7c0-0.1-0.1-0.2-0.2-0.2s-0.2,0.1-0.2,0.2c0,0.1,0.1,0.2,0.2,0.2S53.9,53.8,53.9,53.7z"/>
	<path class="st4" d="M54.5,53.7l-0.1,0.1V54h-0.1v-1h0.1v0.6l0.4-0.3h0.2l-0.3,0.3l0.3,0.4h-0.2L54.5,53.7z"/>
	<path class="st4" d="M40.1,53.6c0,0,0-0.1,0-0.1c0-0.1,0-0.2,0-0.4c0-0.3,0-0.8,0-1.5c0-1.3,0-3.1,0-5.1l0,0h-4.8
		c0,0,0.1-0.1,0.1-0.1l0,0v2c0,0.6,0,1.3,0,1.9c0,1.2,0,2.3,0,3.3l0,0l3.5,0h1L40.1,53.6C40.1,53.6,40.2,53.6,40.1,53.6
		C40.1,53.6,40.1,53.6,40.1,53.6l-0.3,0h-0.9l-3.5,0h-0.1v0c0-1,0-2.1,0-3.3c0-0.6,0-1.2,0-1.9v-0.9c0-0.2,0-0.3,0-0.5v-0.5l0,0
		c0,0,0.1-0.1,0.1-0.1h4.8h0v0c0,2.1,0,3.9,0,5.2c0,0.6,0,1.1,0,1.4c0,0.2,0,0.3,0,0.4C40.2,53.5,40.1,53.6,40.1,53.6z"/>
	<path class="st4" d="M39.1,45.5c0,0.3,0.1,0.6,0,0.9v0h0h-0.6l-0.1-0.1l0,0v-0.2c0-0.1,0-0.2,0-0.3v-0.5v0h0
		C38.7,45.4,38.9,45.4,39.1,45.5c-0.2,0-0.4,0-0.6,0l0,0c0,0.1,0,0.3,0,0.5c0,0.1,0,0.2,0,0.3v0.3l0,0c0,0-0.1-0.1-0.1-0.1h0.6l0,0
		C39.1,46.1,39.1,45.8,39.1,45.5z"/>
	<path class="st4" d="M41.9,53.6c0,0-0.1,0-0.1,0h-0.3h-1.4h0v0c0-1.6,0-4.2,0-7.2v-0.1h1.9v0.1c0,2,0,3.9,0,5.2c0,0.6,0,1.1,0,1.5
		c0,0.2,0,0.3,0,0.4C41.9,53.6,41.9,53.6,41.9,53.6c0,0,0-0.1,0-0.1c0-0.1,0-0.3,0-0.4c0-0.3,0-0.9,0-1.5c0-1.3,0-3.1,0-5.1l0.1,0.1
		h-1.8l0.1-0.1c0,2.9,0,5.6,0,7.2l0,0l1.3,0l0.3,0C41.9,53.6,41.9,53.6,41.9,53.6z"/>
	<rect x="36" y="47.3" class="st4" width="0.7" height="0.7"/>
	<rect x="37.3" y="47.3" class="st4" width="0.7" height="0.7"/>
	<rect x="38.6" y="47.3" class="st4" width="0.7" height="0.7"/>
	<rect x="36" y="48.6" class="st4" width="0.7" height="0.7"/>
	<rect x="37.3" y="48.6" class="st4" width="0.7" height="0.7"/>
	<rect x="38.6" y="48.6" class="st4" width="0.7" height="0.7"/>
	<rect x="36" y="49.9" class="st4" width="0.7" height="0.7"/>
	<rect x="37.3" y="49.9" class="st4" width="0.7" height="0.7"/>
	<rect x="38.6" y="49.9" class="st4" width="0.7" height="0.7"/>
	<rect x="36" y="51.2" class="st4" width="0.7" height="0.7"/>
	<rect x="37.3" y="51.2" class="st4" width="0.7" height="0.7"/>
	<rect x="38.6" y="51.2" class="st4" width="0.7" height="0.7"/>
	<rect x="40.6" y="47.3" class="st4" width="0.7" height="0.7"/>
	<rect x="40.6" y="48.6" class="st4" width="0.7" height="0.7"/>
	<rect x="40.6" y="49.9" class="st4" width="0.7" height="0.7"/>
	<rect x="40.6" y="51.2" class="st4" width="0.7" height="0.7"/>
	<rect x="37.4" y="52.4" class="st4" width="0.7" height="1.2"/>
	<path class="st4" d="M43.5,53.6c0,0-2.3,0.1-5.2,0.1s-5.2,0-5.2-0.1c0,0,2.3-0.1,5.2-0.1S43.5,53.6,43.5,53.6z"/>
	<path class="st6" d="M66.5,57.5c0.1,0,0.2,0,0.3,0c0.3-0.1,0.5-0.2,0.6-0.5c0.1-0.2,0.2-0.3,0.2-0.6s0-0.5,0-0.7c0-0.5,0-1.1,0-1.8
		c0-2.7,0-6.7,0-11.5c0-0.2,0-0.3,0-0.5c0-0.1-0.1-0.3-0.2-0.4c-0.2-0.3-0.5-0.4-0.8-0.4h-1.9h-4.1h-9.2H30.4c-0.5,0-0.8,0.3-1,0.7
		c-0.1,0.2-0.1,0.5-0.1,0.7v0.7c0,0.9,0,1.8,0,2.8v5.3c0,1.7,0,3.5,0,5.1c0,0.4,0.3,0.8,0.7,0.9c0.1,0,0.2,0.1,0.3,0.1
		c0.1,0,0.2,0,0.3,0h3.1l17.1,0l11.5,0h3.1h0.8L66.5,57.5l-0.3,0h-0.8h-3.1l-11.5,0h-17h-3.1c-0.1,0-0.2,0-0.3,0
		c-0.1,0-0.2,0-0.3-0.1c-0.4-0.2-0.7-0.6-0.7-1c0-1.7,0-3.4,0-5.2v-8.7c0-0.1,0-0.2,0-0.3c0-0.1,0-0.3,0.1-0.3
		c0.2-0.5,0.6-0.8,1.1-0.8h20.9h9.2h4.1h1.9c0.3,0,0.6,0.2,0.8,0.4c0.1,0.1,0.2,0.3,0.2,0.4c0,0.2,0,0.3,0,0.5c0,4.9,0,8.8,0,11.5
		c0,0.7,0,1.3,0,1.8c0,0.3,0,0.5,0,0.7c0,0.5-0.4,0.9-0.8,1c-0.1,0-0.1,0-0.2,0L66.5,57.5z"/>
	<path class="st6" d="M31.6,61.8h12.8c0.3,0,0.6,0.3,0.6,0.6v11.4c0,0.3-0.3,0.6-0.6,0.6H31.6c-0.3,0-0.6-0.3-0.6-0.6V62.3
		C31,62.1,31.2,61.8,31.6,61.8z"/>
	<path class="st2" d="M57.7,65.5c0,0-2.2,0.1-4.8,0.1s-4.8,0-4.8-0.1s2.2-0.1,4.8-0.1C55.5,65.4,57.7,65.4,57.7,65.5z"/>
	<path class="st5" d="M65.3,67.1c0,0-3.9,0.1-8.7,0.1s-8.7,0-8.7-0.1s3.9-0.1,8.7-0.1S65.3,67.1,65.3,67.1z"/>
	<path class="st5" d="M56.6,68.8c0,0-1.9,0.1-4.3,0.1s-4.3,0-4.3-0.1s1.9-0.1,4.3-0.1S56.6,68.8,56.6,68.8z"/>
	<path class="st6" d="M56.5,73.8c0,0,0.1,0,0.3,0c0.2,0,0.5-0.2,0.6-0.3c0.3-0.3,0.5-0.6,0.5-1c0-0.2,0-0.5,0-0.7
		c0-0.3-0.1-0.5-0.3-0.7c-0.2-0.2-0.4-0.3-0.7-0.4c-0.2,0-0.3,0-0.5,0h-0.5h-2.1h-4.7c-0.6,0-1.1,0.5-1.3,1c0,0.2,0,0.4,0,0.6
		c0,0.2,0,0.4,0.1,0.6c0.2,0.6,0.6,0.9,1.2,0.9l3.9,0l2.6,0h0.7L56.5,73.8L56.5,73.8C56.5,73.8,56.5,73.8,56.5,73.8l-0.2,0h-0.7
		l-2.6,0h-3.9c-0.6,0-1.1-0.4-1.3-1c0-0.2-0.1-0.4-0.1-0.6c0-0.2,0-0.4,0-0.6c0-0.2,0.1-0.4,0.3-0.6c0.3-0.3,0.7-0.6,1.1-0.6h4.7
		h2.1h0.5c0.2,0,0.3,0,0.5,0c0.3,0.1,0.6,0.3,0.7,0.5c0.2,0.2,0.3,0.5,0.3,0.7c0,0.3,0,0.5,0,0.7c0,0.4-0.2,0.8-0.5,1
		c-0.2,0.2-0.4,0.3-0.6,0.3C56.6,73.7,56.6,73.7,56.5,73.8C56.5,73.8,56.5,73.8,56.5,73.8z"/>
	<path class="st6" d="M51.9,72.3c0,0.2-0.1,0.3-0.3,0.3h-0.4v-0.9h0.4c0.2,0,0.3,0.1,0.3,0.2c0,0.1,0,0.2-0.1,0.2
		C51.9,72.1,52,72.2,51.9,72.3z M51.3,71.7V72h0.3c0.1,0,0.2,0,0.2-0.2s-0.1-0.1-0.2-0.1H51.3L51.3,71.7z M51.8,72.3
		c0-0.1-0.1-0.2-0.2-0.2h-0.3v0.3h0.3C51.7,72.5,51.9,72.4,51.8,72.3L51.8,72.3z"/>
	<path class="st6" d="M52.1,72.2c0-0.2,0.2-0.3,0.3-0.3c0.2,0,0.3,0.2,0.3,0.3c0,0.2-0.2,0.3-0.3,0.3l0,0
		C52.2,72.6,52.1,72.4,52.1,72.2L52.1,72.2z M52.7,72.2c0-0.1-0.1-0.2-0.2-0.2c-0.1,0-0.2,0.1-0.2,0.2c0,0.1,0.1,0.2,0.2,0.2
		C52.6,72.4,52.7,72.3,52.7,72.2z"/>
	<path class="st6" d="M52.9,72.2c0-0.2,0.2-0.3,0.3-0.3c0.2,0,0.3,0.2,0.3,0.3c0,0.2-0.2,0.3-0.3,0.3l0,0
		C53.1,72.6,52.9,72.4,52.9,72.2L52.9,72.2z M53.5,72.2c0-0.1-0.1-0.2-0.2-0.2c-0.1,0-0.2,0.1-0.2,0.2c0,0.1,0.1,0.2,0.2,0.2
		C53.4,72.4,53.5,72.3,53.5,72.2z"/>
	<path class="st6" d="M54.1,72.3l-0.1,0.1v0.2h-0.1v-1h0.1v0.6l0.4-0.3h0.2l-0.3,0.3l0.3,0.4h-0.2L54.1,72.3z"/>
	<path class="st4" d="M39.7,72.1c0,0,0,0,0-0.1c0-0.1,0-0.2,0-0.4c0-0.3,0-0.8,0-1.5c0-1.3,0-3.1,0-5.1l0,0h-4.8l0.1-0.1l0,0v2
		c0,0.6,0,1.3,0,1.9c0,1.2,0,2.3,0,3.3l0,0l3.5,0h1L39.7,72.1C39.7,72.1,39.7,72.1,39.7,72.1C39.7,72.1,39.7,72.1,39.7,72.1l-0.3,0
		l-1,0l-3.5,0h0v0c0-1,0-2.1,0-3.3c0-0.6,0-1.2,0-1.9v-2l0,0c0,0,0.1-0.1,0.1-0.1h4.8h0v0c0,2.1,0,3.9,0,5.2c0,0.6,0,1.1,0,1.4
		c0,0.2,0,0.3,0,0.4C39.7,72,39.7,72.1,39.7,72.1z"/>
	<path class="st4" d="M38.8,64c0,0.3,0.1,0.6,0,0.9v0h0h-0.6L38,64.9l0,0v-0.3c0-0.1,0-0.2,0-0.3c0-0.2,0-0.3,0-0.5v0h0
		C38.3,63.9,38.5,63.9,38.8,64c-0.2,0-0.5,0-0.6,0l0,0v0.5c0,0.1,0,0.2,0,0.3V65l0,0l-0.1-0.1h0.6l0,0C38.7,64.6,38.7,64.3,38.8,64z
		"/>
	<path class="st4" d="M41.5,72.1c0,0-0.1,0-0.1,0H41h-1.4h0v0c0-1.6,0-4.2,0-7.2v-0.1h1.9v0.1c0,2,0,3.9,0,5.2c0,0.6,0,1.1,0,1.5
		c0,0.2,0,0.3,0,0.4C41.5,72,41.5,72.1,41.5,72.1c0,0,0-0.1,0-0.1c0-0.1,0-0.3,0-0.4c0-0.3,0-0.9,0-1.5c0-1.3,0-3.1,0-5.1l0.1,0.1
		h-1.8l0.1-0.1c0,2.9,0,5.6,0,7.2l0,0l1.3,0l0.3,0C41.4,72.1,41.5,72.1,41.5,72.1z"/>
	<rect x="35.6" y="65.9" class="st4" width="0.7" height="0.7"/>
	<rect x="36.9" y="65.9" class="st4" width="0.7" height="0.7"/>
	<rect x="38.2" y="65.9" class="st4" width="0.7" height="0.7"/>
	<rect x="35.6" y="67.1" class="st4" width="0.7" height="0.7"/>
	<rect x="36.9" y="67.1" class="st4" width="0.7" height="0.7"/>
	<rect x="38.2" y="67.1" class="st4" width="0.7" height="0.7"/>
	<rect x="35.6" y="68.4" class="st4" width="0.7" height="0.7"/>
	<rect x="36.9" y="68.4" class="st4" width="0.7" height="0.7"/>
	<rect x="38.2" y="68.4" class="st4" width="0.7" height="0.7"/>
	<rect x="35.6" y="69.7" class="st4" width="0.7" height="0.7"/>
	<rect x="36.9" y="69.7" class="st4" width="0.7" height="0.7"/>
	<rect x="38.2" y="69.7" class="st4" width="0.7" height="0.7"/>
	<rect x="40.2" y="65.9" class="st4" width="0.7" height="0.7"/>
	<rect x="40.2" y="67.1" class="st4" width="0.7" height="0.7"/>
	<rect x="40.2" y="68.4" class="st4" width="0.7" height="0.7"/>
	<rect x="40.2" y="69.7" class="st4" width="0.7" height="0.7"/>
	<rect x="37" y="70.9" class="st4" width="0.7" height="1.2"/>
	<path class="st4" d="M43.1,72.1c0,0-2.3,0.1-5.2,0.1s-5.2,0-5.2-0.1s2.3-0.1,5.2-0.1C40.8,72,43.1,72.1,43.1,72.1z"/>
	<path class="st6" d="M31.7,80.2h12.8c0.3,0,0.6,0.3,0.6,0.6v11.4c0,0.3-0.3,0.6-0.6,0.6H31.7c-0.3,0-0.6-0.3-0.6-0.6V80.8
		C31.1,80.5,31.4,80.2,31.7,80.2z"/>
	<path class="st2" d="M57.8,83.9c0,0-2.2,0.1-4.8,0.1c-2.6,0-4.8,0-4.8-0.1s2.2-0.1,4.8-0.1S57.8,83.8,57.8,83.9z"/>
	<path class="st5" d="M65.4,85.5c0,0-3.9,0.1-8.7,0.1s-8.7,0-8.7-0.1s3.9-0.1,8.7-0.1S65.4,85.5,65.4,85.5z"/>
	<path class="st5" d="M56.7,87.2c0,0-1.9,0.1-4.3,0.1c-2.4,0-4.3,0-4.3-0.1c0,0,1.9-0.1,4.3-0.1C54.8,87.1,56.7,87.2,56.7,87.2z"/>
	<path class="st6" d="M56.6,92.2c0,0,0.1,0,0.3,0c0.2,0,0.5-0.2,0.6-0.3c0.3-0.3,0.5-0.6,0.5-1c0-0.2,0-0.5,0-0.7
		c-0.1-0.6-0.5-1-1-1.1c-0.2,0-0.3,0-0.5,0h-0.5H54h-4.7c-0.4,0-0.8,0.2-1,0.5c-0.1,0.2-0.2,0.3-0.2,0.6c0,0.2,0,0.4,0,0.6
		c0,0.2,0,0.4,0.1,0.6c0.1,0.2,0.2,0.3,0.3,0.5c0.3,0.3,0.6,0.4,0.9,0.4l3.9,0l2.6,0h0.7L56.6,92.2l0.1,0
		C56.7,92.2,56.7,92.2,56.6,92.2l-0.1,0h-0.7l-2.7,0h-3.9c-0.4,0-0.8-0.2-1-0.5c-0.1-0.2-0.2-0.3-0.3-0.5c0-0.2-0.1-0.4-0.1-0.6
		s0-0.4,0-0.6c0.1-0.6,0.7-1.1,1.4-1.1H54h2.1h0.5c0.2,0,0.3,0,0.5,0c0.6,0.1,1,0.6,1.1,1.2c0,0.3,0,0.5,0,0.7c0,0.4-0.2,0.8-0.5,1
		c-0.2,0.2-0.4,0.3-0.6,0.3c-0.1,0-0.1,0-0.2,0C56.7,92.2,56.7,92.2,56.6,92.2z"/>
	<path class="st6" d="M52.1,90.7c0,0.2-0.1,0.3-0.3,0.3h-0.4v-0.9h0.4c0.2,0,0.3,0.1,0.3,0.3c0,0.1,0,0.2-0.1,0.2
		C52.1,90.5,52.1,90.6,52.1,90.7z M51.5,90.1v0.3h0.3c0.1,0,0.2,0,0.2-0.1c0-0.1-0.1-0.1-0.2-0.1L51.5,90.1L51.5,90.1z M52,90.7
		c0-0.1-0.1-0.2-0.2-0.2h-0.3v0.3h0.3C51.9,90.9,52,90.8,52,90.7L52,90.7z"/>
	<path class="st6" d="M52.2,90.6c0-0.2,0.2-0.3,0.3-0.3c0.2,0,0.3,0.2,0.3,0.3c0,0.2-0.2,0.3-0.3,0.3l0,0
		C52.4,90.9,52.2,90.8,52.2,90.6C52.2,90.7,52.2,90.6,52.2,90.6z M52.8,90.6c0-0.1-0.1-0.2-0.3-0.2c-0.1,0-0.2,0.1-0.2,0.3
		s0.1,0.2,0.2,0.2C52.7,90.9,52.8,90.8,52.8,90.6L52.8,90.6L52.8,90.6z"/>
	<path class="st6" d="M53.1,90.6c0-0.2,0.2-0.3,0.3-0.3s0.3,0.2,0.3,0.3c0,0.2-0.2,0.3-0.3,0.3l0,0C53.3,90.9,53.1,90.8,53.1,90.6
		C53.1,90.7,53.1,90.6,53.1,90.6z M53.7,90.6c0-0.1-0.1-0.2-0.2-0.2c-0.1,0-0.2,0.1-0.2,0.2c0,0.1,0.1,0.2,0.2,0.2
		C53.6,90.8,53.7,90.7,53.7,90.6z"/>
	<path class="st6" d="M54.2,90.7l-0.1,0.1V91H54v-1h0.1v0.6l0.4-0.3h0.2l-0.3,0.3l0.3,0.4h-0.2L54.2,90.7z"/>
	<path class="st4" d="M39.9,90.5c0,0,0-0.1,0-0.1c0-0.1,0-0.2,0-0.4c0-0.3,0-0.8,0-1.5c0-1.3,0-3.1,0-5.1l0,0H35
		c0,0,0.1-0.1,0.1-0.1l0,0v2c0,0.6,0,1.3,0,1.9c0,1.2,0,2.3,0,3.3l0,0l3.5,0h1L39.9,90.5L39.9,90.5C39.9,90.5,39.9,90.5,39.9,90.5
		l-0.3,0h-1l-3.5,0l0,0v0c0-1,0-2.1,0-3.3c0-0.6,0-1.2,0-1.9c0-0.3,0-0.6,0-1v-1l0,0c0,0,0.1-0.1,0.1-0.1H40h0v0c0,2.1,0,3.9,0,5.2
		c0,0.6,0,1.1,0,1.4c0,0.2,0,0.3,0,0.4C39.9,90.4,39.9,90.5,39.9,90.5z"/>
	<path class="st4" d="M38.9,82.4c0,0.3,0.1,0.6,0,0.9v0h0h-0.6l-0.1-0.1l0,0V83c0-0.1,0-0.2,0-0.3v-0.5v0h0
		C38.5,82.3,38.7,82.3,38.9,82.4c-0.2,0-0.4,0-0.6,0l0,0c0,0.1,0,0.3,0,0.5c0,0.1,0,0.2,0,0.3c0,0,0,0.1,0,0.1v0.1l0,0l-0.1-0.1h0.6
		l0,0C38.8,83,38.9,82.7,38.9,82.4z"/>
	<path class="st4" d="M41.7,90.6c0,0-0.1,0-0.1,0h-0.3h-1.4h0v0c0-1.6,0-4.2,0-7.2v-0.1h1.9v0.1c0,2,0,3.9,0,5.2c0,0.6,0,1.1,0,1.5
		c0,0.2,0,0.3,0,0.4C41.7,90.5,41.7,90.5,41.7,90.6c0,0,0,0,0-0.1s0-0.3,0-0.4c0-0.3,0-0.9,0-1.5c0-1.3,0-3.1,0-5.1l0.1,0.1h-1.8
		l0.1-0.1c0,2.9,0,5.6,0,7.2l0,0l1.3,0l0.3,0L41.7,90.6z"/>
	<rect x="35.8" y="84.3" class="st4" width="0.7" height="0.7"/>
	<rect x="37.1" y="84.3" class="st4" width="0.7" height="0.7"/>
	<rect x="38.3" y="84.3" class="st4" width="0.7" height="0.7"/>
	<rect x="35.8" y="85.6" class="st4" width="0.7" height="0.7"/>
	<rect x="37.1" y="85.6" class="st4" width="0.7" height="0.7"/>
	<rect x="38.3" y="85.6" class="st4" width="0.7" height="0.7"/>
	<rect x="35.8" y="86.8" class="st4" width="0.7" height="0.7"/>
	<rect x="37.1" y="86.8" class="st4" width="0.7" height="0.7"/>
	<rect x="38.3" y="86.8" class="st4" width="0.7" height="0.7"/>
	<rect x="35.8" y="88.1" class="st4" width="0.7" height="0.7"/>
	<rect x="37.1" y="88.1" class="st4" width="0.7" height="0.7"/>
	<rect x="38.3" y="88.1" class="st4" width="0.7" height="0.7"/>
	<rect x="40.3" y="84.3" class="st4" width="0.7" height="0.7"/>
	<rect x="40.3" y="85.6" class="st4" width="0.7" height="0.7"/>
	<rect x="40.3" y="86.8" class="st4" width="0.7" height="0.7"/>
	<rect x="40.3" y="88.1" class="st4" width="0.7" height="0.7"/>
	<rect x="37.2" y="89.4" class="st4" width="0.7" height="1.2"/>
	<path class="st4" d="M43.3,90.5c0,0-2.3,0.1-5.2,0.1c-2.9,0-5.2,0-5.2-0.1s2.3-0.1,5.2-0.1C41,90.5,43.3,90.5,43.3,90.5z"/>
	<path class="st1" d="M33.9,26.7h28.6c0.9,0,1.6,0.7,1.6,1.6v1.6c0,0.9-0.7,1.6-1.6,1.6l0,0H33.9c-0.9,0-1.6-0.7-1.6-1.6v-1.6
		C32.3,27.4,33,26.7,33.9,26.7L33.9,26.7z"/>
	<path class="st5" d="M61.6,28.8c0,0,0-0.1,0-0.2c-0.1-0.3-0.5-0.6-0.8-0.5c0,0,0,0,0,0c-0.3,0.1-0.5,0.5-0.4,0.8
		c0.1,0.3,0.5,0.5,0.8,0.4c0.1,0,0.1,0,0.2-0.1c0.1-0.1,0.2-0.2,0.3-0.3S61.6,28.8,61.6,28.8L61.6,28.8c0,0.1,0,0.1,0,0.2
		c0,0.2-0.1,0.3-0.3,0.4c-0.3,0.2-0.7,0.2-1-0.1c-0.2-0.3-0.2-0.7,0.1-1c0.3-0.2,0.6-0.2,0.8,0c0.1,0.1,0.2,0.2,0.3,0.4
		C61.6,28.6,61.6,28.7,61.6,28.8L61.6,28.8z"/>
	<path class="st5" d="M62,29.9c-0.1-0.1-0.2-0.2-0.3-0.3c-0.1-0.1-0.2-0.2-0.3-0.3c0.1,0.1,0.2,0.2,0.3,0.3
		C61.8,29.7,61.9,29.8,62,29.9z"/>
	<path class="st5" d="M35.4,28.8h-0.3v-0.1h0.7v0.1H35.4l0.1,0.7h-0.1L35.4,28.8L35.4,28.8z"/>
	<path class="st5" d="M35.8,29.3c0-0.2,0.2-0.3,0.3-0.3c0.2,0,0.3,0.2,0.3,0.3s-0.2,0.3-0.3,0.3l0,0C35.9,29.6,35.8,29.4,35.8,29.3
		L35.8,29.3z M36.3,29.3c0-0.1-0.1-0.2-0.2-0.2c-0.1,0-0.2,0.1-0.2,0.2s0.1,0.2,0.2,0.2C36.2,29.5,36.3,29.4,36.3,29.3L36.3,29.3z"
		/>
	<path class="st5" d="M36.6,29C36.6,29,36.6,28.9,36.6,29L36.6,29c0.1-0.1,0.2,0,0.2,0l0,0C36.7,29.1,36.7,29.1,36.6,29L36.6,29
		C36.6,29.1,36.6,29.1,36.6,29z M36.6,29.5C36.6,29.4,36.6,29.4,36.6,29.5L36.6,29.5c0.1-0.1,0.2,0,0.2,0l0,0
		C36.7,29.5,36.7,29.6,36.6,29.5L36.6,29.5C36.6,29.6,36.6,29.6,36.6,29.5L36.6,29.5L36.6,29.5z"/>
	<path class="st5" d="M55.4,29.3c0,0-3.6,0.1-8.1,0.1s-8.1,0-8.1-0.1s3.6-0.1,8.1-0.1C51.7,29.2,55.4,29.3,55.4,29.3z"/>
	<path class="st1" d="M33.9,33.1h28.6c0.9,0,1.6,0.7,1.6,1.6v1.6c0,0.9-0.7,1.6-1.6,1.6H33.9c-0.9,0-1.6-0.7-1.6-1.6v-1.6
		C32.3,33.8,33,33.1,33.9,33.1z"/>
	<path class="st5" d="M61.6,35.4c0,0,0-0.1,0-0.2c0-0.1-0.1-0.3-0.3-0.3c-0.3-0.2-0.7-0.2-0.9,0.1c-0.2,0.3-0.2,0.7,0.1,0.9
		c0.2,0.2,0.6,0.2,0.8,0c0.1-0.1,0.2-0.2,0.3-0.3C61.6,35.5,61.6,35.4,61.6,35.4L61.6,35.4c0,0.1,0,0.1,0,0.2c0,0.2-0.1,0.3-0.3,0.4
		c-0.2,0.1-0.4,0.2-0.6,0.1c-0.3-0.1-0.6-0.5-0.4-0.9c0.1-0.2,0.2-0.3,0.4-0.4s0.5,0,0.7,0.1c0.1,0.1,0.2,0.2,0.3,0.4
		C61.6,35.3,61.7,35.3,61.6,35.4C61.6,35.4,61.6,35.4,61.6,35.4z"/>
	<path class="st5" d="M62,36.6c-0.1-0.1-0.2-0.2-0.3-0.3c-0.1-0.1-0.2-0.2-0.3-0.3c0.1,0.1,0.2,0.2,0.3,0.3
		C61.8,36.3,61.9,36.4,62,36.6z"/>
	<path class="st5" d="M35.2,34.9h0.4c0.2,0,0.5,0.2,0.5,0.4s-0.2,0.5-0.4,0.5c0,0-0.1,0-0.1,0h-0.3L35.2,34.9z M35.5,35.6
		c0.2,0,0.3-0.1,0.3-0.3c0-0.2-0.1-0.3-0.3-0.3l0,0h-0.2v0.6L35.5,35.6L35.5,35.6z"/>
	<path class="st5" d="M36.7,35.4v0.4h-0.1v-0.1c0,0.1-0.1,0.1-0.2,0.1c-0.1,0-0.3-0.1-0.3-0.2s0.1-0.2,0.3-0.2h0.2l0,0
		c0-0.1-0.1-0.2-0.2-0.2c-0.1,0-0.2,0-0.2,0.1l0-0.1c0.1-0.1,0.2-0.1,0.3-0.1C36.6,35.1,36.7,35.2,36.7,35.4z M36.6,35.6L36.6,35.6
		l-0.2-0.1c-0.1,0-0.2,0-0.2,0.1c0,0,0,0.1,0.1,0.1C36.5,35.7,36.6,35.6,36.6,35.6L36.6,35.6z"/>
	<path class="st5" d="M37.3,35.7c0,0-0.1,0-0.1,0c-0.1,0-0.2-0.1-0.2-0.2c0,0,0,0,0,0v-0.3h-0.1v-0.1h0.1V35h0.1v0.1h0.2v0.1h-0.2
		v0.3c0,0,0,0.1,0.1,0.1L37.3,35.7C37.2,35.7,37.3,35.7,37.3,35.7L37.3,35.7z"/>
	<path class="st5" d="M38,35.5h-0.5c0,0.1,0.1,0.2,0.2,0.2s0.1,0,0.2-0.1l0.1,0.1c-0.1,0.1-0.2,0.1-0.3,0.1c-0.2,0-0.3-0.1-0.3-0.3
		v0c0-0.2,0.1-0.3,0.3-0.3h0C37.9,35.1,38,35.3,38,35.5L38,35.5C38,35.5,38,35.5,38,35.5z M37.4,35.4h0.4c0-0.1-0.1-0.2-0.2-0.2
		C37.6,35.2,37.5,35.3,37.4,35.4z"/>
	<path class="st5" d="M38.1,35.2C38.1,35.2,38.2,35.1,38.1,35.2c0.1-0.1,0.2,0,0.2,0C38.3,35.3,38.3,35.3,38.1,35.2
		C38.1,35.3,38.1,35.3,38.1,35.2L38.1,35.2z M38.1,35.7C38.1,35.7,38.2,35.6,38.1,35.7L38.1,35.7c0.1-0.1,0.2,0,0.2,0l0,0
		C38.3,35.8,38.3,35.8,38.1,35.7L38.1,35.7C38.1,35.8,38.1,35.8,38.1,35.7z"/>
	<path class="st5" d="M42.2,35.5c-0.3,0.1-0.7,0.1-1.1,0.1c-0.3,0-0.7,0-1.1-0.1c0.3-0.1,0.7-0.1,1.1-0.1
		C41.6,35.4,41.9,35.4,42.2,35.5z"/>
	<path class="st5" d="M50.5,35.5c0,0-1.6,0.1-3.4,0.1c-1.9,0-3.4,0-3.4-0.1c0,0,1.6-0.1,3.4-0.1C48.9,35.5,50.5,35.5,50.5,35.5z"/>
	<g>
		<polygon class="st6" points="48.8,45.6 48.8,45.8 49.1,45.9 48.9,46 48.9,46.2 48.8,46.1 48.6,46.2 48.6,46 48.4,45.9 48.6,45.8 
					"/>
		<polygon class="st6" points="49.7,45.6 49.7,45.8 50,45.9 49.8,46 49.8,46.2 49.7,46.1 49.4,46.2 49.4,46 49.3,45.9 49.5,45.8 		
			"/>
		<polygon class="st6" points="50.5,45.6 50.6,45.8 50.8,45.9 50.7,46 50.7,46.2 50.5,46.1 50.3,46.2 50.4,46 50.2,45.9 50.4,45.8 
					"/>
		<polygon class="st6" points="51.4,45.6 51.5,45.8 51.7,45.9 51.6,46 51.6,46.2 51.4,46.1 51.2,46.2 51.2,46 51.1,45.9 51.3,45.8 
					"/>
		<polygon class="st6" points="52.3,45.6 52.4,45.8 52.6,45.9 52.5,46 52.5,46.2 52.3,46.1 52.1,46.2 52.1,46 52,45.9 52.2,45.8 		
			"/>
		<rect x="48.4" y="43.9" class="st7" width="18.8" height="1.1"/>
		<text transform="matrix(1 0 0 1 48.3524 44.7505)" class="st8 st9">Room 1</text>
	</g>
	<g>
		<polygon class="st6" points="48.5,63.9 48.6,64 48.8,64.1 48.6,64.2 48.7,64.5 48.5,64.4 48.3,64.5 48.3,64.2 48.2,64.1 48.4,64 
					"/>
		<polygon class="st6" points="49.4,63.9 49.4,64 49.7,64.1 49.5,64.2 49.6,64.5 49.4,64.4 49.2,64.5 49.2,64.2 49,64.1 49.3,64 		
			"/>
		<polygon class="st6" points="50.3,63.9 50.4,64 50.6,64.1 50.4,64.2 50.5,64.5 50.3,64.4 50,64.5 50.1,64.2 50,64.1 50.2,64 		"/>
		<polygon class="st10" points="51.1,63.9 51.3,64 51.5,64.1 51.3,64.2 51.3,64.5 51.1,64.4 50.9,64.5 51,64.2 50.8,64.1 51.1,64 		
			"/>
		<polygon class="st10" points="52,63.9 52.1,64 52.4,64.1 52.2,64.2 52.2,64.5 52,64.4 51.9,64.5 51.9,64.2 51.7,64.1 51.9,64 		
			"/>
		<rect x="48.1" y="62.2" class="st7" width="18.8" height="1.1"/>
		<text transform="matrix(1 0 0 1 48.0927 62.9937)" class="st8 st9">Room 2</text>
	</g>
</g>
<g id="freepik--Character--inject-46">
	<path class="st11" d="M96.7,44.2h-2.4l-3.6,10.5l5.6,8.2c1.7,0.3,3.7,0.6,5-0.5c1.1-1,1.3-2.5,1.3-4c0.1-2.3,0-4.7-0.2-7
		c-0.1-1.7-0.4-3.6-1.3-5C100.2,44.9,98.4,43.8,96.7,44.2"/>
	<path class="st5" d="M99,63.1c0.1,0,0.1,0,0.2,0c0.2,0,0.3-0.2,0.5-0.3c0.2-0.2,0.3-0.5,0.4-0.8c0.1-0.4,0.1-0.8,0.1-1.2
		c0.2-2.4,0.2-4.7,0.1-7.1c0-1.3-0.1-2.6-0.3-3.9c-0.1-1.1-0.4-2.1-0.8-3.1c-0.3-0.6-0.6-1.3-1.1-1.8c-0.2-0.2-0.3-0.3-0.4-0.5
		l-0.1-0.1c0,0,0,0,0,0s0,0,0,0l0.1,0.1c0.1,0.1,0.2,0.3,0.4,0.4c0.5,0.6,0.8,1.2,1.1,1.8c0.4,1,0.7,2,0.8,3.1
		c0.2,1.3,0.3,2.6,0.3,3.9c0.1,2.4,0,4.7-0.2,7.1c0,0.4-0.1,0.8-0.2,1.2c-0.1,0.3-0.2,0.6-0.5,0.8c-0.1,0.1-0.3,0.3-0.5,0.3
		C99.2,63.1,99.1,63.1,99,63.1z"/>
	<path class="st5" d="M102.7,56.6c-0.3,0.2-0.7,0.3-1,0.4c-0.4,0-0.8,0-1.1-0.2c0.3,0,0.7,0.1,1.1,0.1
		C102,56.8,102.3,56.7,102.7,56.6z"/>
	<path class="st5" d="M102.5,51.4c-0.3,0.2-0.7,0.3-1.1,0.4s-0.8,0.1-1.1,0c0,0,0.5,0,1.1-0.1C102.1,51.6,102.5,51.4,102.5,51.4z"/>
	<path class="st5" d="M96.9,44.2c0,0-0.3-1.2,0.3-1.3s2.2,0.6,1.9,1.3c-0.1,0.3-0.3,0.7-0.6,1l-0.2-0.3c0,0,0.4-0.5,0.3-0.8
		c0-0.3-1.1-0.9-1.3-0.6c-0.1,0.2-0.2,0.4-0.2,0.6H96.9z"/>
	<path class="st12" d="M77.1,45.7l-9.6,0.2L66,45.7c0,0-3.5-0.1-3.9-0.2c-0.4-0.1-0.5,0.1-0.5,0.3c0,0.2,0.2,0.4,0.6,0.5
		c0.1,0,1.9,0.3,1.9,0.3c-0.2,0.1-0.3,0.2-0.6,0.3c-0.4,0.2-0.7,0.8-0.8,1.4s0,0.8,0.2,0.9c0.1,0,0.2,0,0.3-0.1
		c0.1-0.1,0.2-0.3,0.3-0.5c0.2-1.2,0.7-1.2,0.7-1.2h0.2c0,0-0.6,0.6-0.5,1.1c0,0.1,0,0.2,0.1,0.2c-0.1,0.5,0.2,0.9,0.7,0.9
		c0.1,0,0.3,0,0.4,0c0.1,0,0.3-0.2,0.3-0.3c0-0.1,0-0.1-0.1-0.2c0,0,0-0.1,0-0.1l0.6,0c0,0,1.3-0.1,1.9-0.1l9,0.3
		c1.3,0.1,2.7-0.1,2.8-1.4l0,0C79.7,46.4,78.5,45.6,77.1,45.7z"/>
	<path class="st12" d="M67.3,46.1c0,0.2-0.1,0.4-0.3,0.5c-0.2,0.1-0.4,0.1-0.6,0.2c-0.6,0.2-0.9,0.8-1.5,1c-0.1,0-0.2,0-0.2,0
		c0-0.1,0-0.2,0.1-0.2l1.2-1.6"/>
	<path class="st13" d="M66,45.9c-0.1,0-0.1,0.1-0.2,0.2c-0.1,0.1-0.2,0.3-0.3,0.5L65,47.2l-0.2,0.2c-0.1,0.1-0.1,0.2-0.1,0.3
		s0.1,0.1,0.1,0.1c0,0,0.1,0,0.2,0c0.1,0,0.2-0.1,0.3-0.1c0.3-0.2,0.6-0.4,0.8-0.6c0.1-0.1,0.3-0.2,0.4-0.2c0.1,0,0.3-0.1,0.4-0.1
		c0.2,0,0.4-0.2,0.5-0.3c0-0.1,0-0.2,0-0.2c0,0.1,0,0.1-0.1,0.2c-0.1,0.2-0.3,0.3-0.5,0.3c-0.1,0-0.3,0-0.4,0.1
		c-0.2,0-0.3,0.1-0.4,0.2c-0.3,0.2-0.6,0.5-0.8,0.6c-0.1,0-0.2,0.1-0.3,0.1c-0.1,0-0.2,0-0.2,0c0,0,0-0.1,0.1-0.2l0.2-0.2l0.5-0.7
		c0.1-0.2,0.3-0.3,0.3-0.5C65.9,46,66,45.9,66,45.9z"/>
	<path class="st13" d="M64.4,47.5c-0.1,0-0.3,0-0.3,0.1c-0.1,0.1-0.2,0.2-0.3,0.3c-0.1,0.2-0.1,0.3-0.1,0.5c0,0.2-0.1,0.3-0.1,0.5
		c0,0.1-0.1,0.3-0.3,0.3c-0.1,0.1-0.2,0.1-0.3,0.1c-0.1,0-0.1,0-0.1,0s0,0,0.1,0c0.1,0,0.2,0,0.3-0.1c0.1-0.1,0.2-0.2,0.2-0.3
		c0-0.2,0.1-0.3,0.1-0.5c0-0.2,0.1-0.3,0.2-0.5c0.1-0.1,0.2-0.2,0.3-0.3C64.2,47.5,64.3,47.5,64.4,47.5
		C64.4,47.5,64.4,47.5,64.4,47.5z"/>
	<path class="st13" d="M62.1,46.3c0.1,0,0.3,0,0.3,0l0.9,0.1l0.9,0.1c0.1,0,0.3,0,0.3,0.1c-0.1,0-0.3,0-0.3,0
		c-0.2,0-0.6-0.1-0.9-0.1c-0.3,0-0.6-0.1-0.9-0.2C62.3,46.4,62.2,46.4,62.1,46.3z"/>
	<path class="st13" d="M64.8,48C64.7,48,64.7,48.1,64.8,48c-0.2,0.2-0.2,0.3-0.2,0.3c0,0.1,0.1,0.1,0.1,0.1c0.1,0,0.2,0,0.3,0
		c0.1,0,0.2,0,0.3,0.1c0.1,0.1,0.1,0.2,0.1,0.3c0,0.1-0.1,0.2-0.2,0.3c-0.1,0.1-0.2,0.1-0.3,0.1c-0.2,0-0.3,0-0.5-0.1
		c-0.1,0-0.2-0.1-0.3-0.1c0,0-0.1,0-0.1-0.1c0,0,0,0,0.1,0.1c0.1,0,0.2,0.1,0.3,0.1c0.2,0,0.3,0.1,0.5,0.1c0.2,0,0.3-0.1,0.3-0.3
		c0-0.1,0-0.2-0.1-0.3c-0.1,0-0.1-0.1-0.2-0.1c-0.1,0-0.2,0-0.3,0c-0.1,0-0.1-0.1-0.2-0.2c0-0.1,0-0.2,0.1-0.3
		C64.8,48,64.8,48,64.8,48z"/>
	<path class="st13" d="M65.2,49.1c0,0,0.1,0,0.1,0c0.1,0,0.1,0.1,0.2,0.3c0,0.2-0.1,0.3-0.2,0.4c-0.2,0.1-0.3,0.1-0.5,0.1
		c-0.2,0-0.3-0.1-0.5-0.2c-0.1-0.1-0.2-0.2-0.2-0.3c0-0.1,0-0.2,0-0.3c0-0.1,0-0.1,0-0.1c0,0.1,0,0.3,0,0.3c0,0.1,0.1,0.3,0.2,0.3
		c0.1,0.1,0.3,0.2,0.4,0.2s0.3,0,0.5-0.1c0.1-0.1,0.2-0.2,0.2-0.3c0-0.1,0-0.2-0.1-0.2C65.3,49.1,65.2,49.1,65.2,49.1z"/>
	<path class="st13" d="M66.6,48.1c0,0,0-0.1,0-0.2c0-0.1,0.2-0.3,0.3-0.3v0.1c-0.1,0-0.2,0-0.3-0.1c-0.3-0.1-0.5-0.3-0.7-0.5
		c0.2,0.2,0.5,0.3,0.7,0.4c0.1,0,0.2,0.1,0.2,0.1l0.1,0l-0.1,0c-0.1,0.1-0.2,0.2-0.3,0.3C66.6,48,66.6,48.1,66.6,48.1z"/>
	<path class="st13" d="M63.5,47.6c0,0,0.1,0.1,0.2,0.3c0,0.2,0,0.3,0,0.3c0,0,0-0.1,0-0.3C63.6,47.7,63.5,47.6,63.5,47.6z"/>
	<path class="st6" d="M84.4,39.6c-0.2,0.2-6.7,5.4-7.5,5.6c-0.8,0.2-8.3,0.3-8.3,0.3s-0.6,4.6-0.4,4.9c0.7,1.1,9.3,4.2,13.4,0.1
		l2.8-10.4"/>
	<path class="st5" d="M76.1,48.1c0-0.1-0.1-0.3-0.1-0.4c0-0.7,0.1-1.4,0.4-1.9c0-0.1,0.1-0.3,0.2-0.3c-0.2,0.4-0.3,0.8-0.4,1.3
		C76.1,47.1,76.1,47.6,76.1,48.1z"/>
	<path class="st5" d="M76.8,48.2c0-0.1-0.1-0.3-0.1-0.5c-0.1-0.7-0.1-1.4,0-2.2c0-0.2,0-0.3,0.1-0.5c0,0,0,0.7,0,1.5
		C76.8,47.5,76.9,48.2,76.8,48.2z"/>
	<g class="st14">
		<path d="M76.6,45.3c-1.1,1-1.5,2.5-1.1,3.9c0.1,0.2,0.2,0.5,0.4,0.5c0.2,0,0.4-0.1,0.5-0.3c0.1-0.2,0.1-0.4,0.1-0.6l0.2-3.6"/>
	</g>
	<polygon class="st5" points="84.4,40.4 84.6,39.3 83.2,40.6 82.5,43 	"/>
	<path class="st6" d="M85.9,38.2l-1,0.6L81.8,44l0,2.8c0,0-0.7,1.9-0.8,3.5c-0.1,1.5,0,7.2,0,7.2l-4,26.4l3.4,1.1l6.7-30.7V37.8
		L85.9,38.2z"/>
	<g class="st14">
		<path d="M80.4,85l-2.7-0.9l3.9-28.6c0,0-0.6-4.2,0-6c0.6-1.8,1.7-4.5,1.7-4.5L82.1,50c0.1,3.9-0.1,8.4-0.5,13.4h1L80.4,85z"/>
	</g>
	<path class="st5" d="M83.6,40.9c0,0,0,0.1-0.1,0.1c0,0.1-0.1,0.2-0.3,0.4c-0.3,0.5-0.6,1-0.8,1.5c-0.3,0.8-0.6,1.6-0.8,2.4
		c-0.2,1-0.4,2-0.5,3c-0.1,1.1-0.2,2.1-0.2,3.1c0,1,0,1.8,0,2.5s0,1.3,0,1.7c0,0.2,0,0.3,0,0.5c0,0,0,0.1,0,0.2c0,0,0-0.1,0-0.2
		c0-0.1,0-0.3,0-0.5c0-0.4,0-1,0-1.7s0-1.6,0-2.5c0-1,0.1-2,0.2-3.1c0.1-1,0.3-2,0.5-3.1c0.2-0.8,0.5-1.6,0.8-2.4
		c0.2-0.5,0.5-1,0.8-1.5c0.1-0.2,0.2-0.3,0.3-0.4C83.6,41.1,83.6,41,83.6,40.9z"/>
	<g class="st14">
		<path d="M79.4,51.9c0.3-1.6,0.9-3.1,1.7-4.5c0,1-0.1,2-0.2,3c0,0.2-0.1,0.4-0.2,0.6c-0.1,0.1-0.2,0.2-0.3,0.3L79.4,51.9"/>
	</g>
	<path class="st5" d="M93.6,30.4c0.3-0.6,0.7-1.1,1.3-1.4c0.6-0.3,1.3-0.3,1.8,0c0.6,0.3,0.9,1,0.8,1.6c1,0.5,1.4,1.7,0.9,2.8
		c-0.5,1-1.7,1.4-2.8,0.9c0.5,0.7,0.1,1.8-0.7,2.1c-0.8,0.3-1.8-0.2-2.2-1c-0.4-0.8-0.3-1.7,0-2.5"/>
	<path class="st6" d="M93.3,30.9c0.1-0.3,0.4-0.5,0.7-0.6c0.3,0,0.6,0.2,0.8,0.5s0,0.6-0.3,0.8c0.4,0.2,0.6,0.7,0.4,1.1
		c-0.1,0.3-0.5,0.5-0.8,0.5c0.2,0.4,0.1,0.9-0.3,1.1c-0.3,0.2-0.6,0.1-0.9-0.1c-0.2-0.2-0.3-0.5-0.3-0.7c0-0.3,0-0.6,0-0.8
		c0.1-0.4,0.1-0.8,0.2-1.3c0-0.2,0.1-0.4,0.2-0.6c0.1-0.2,0.3-0.3,0.5-0.3"/>
	<path class="st5" d="M83,27.4c-0.3-0.6-0.1-1.3,0.3-1.7s1.1-0.6,1.7-0.6c0.6,0,1.2,0.2,1.8,0.4c0.7-0.9,1.9-1,2.8-0.3
		c0.3,0.3,0.6,0.6,0.7,1c0.6-0.3,1.4,0.1,1.7,0.7c0.1,0.3,0.1,0.5,0.1,0.7l-2.6,1.3l-2.3,5.7c-0.9,1-2.5,1-3.4,0.1
		c-0.8-0.7-1-1.9-0.5-2.9c-0.2-0.1-0.3-0.3-0.5-0.5c-0.5-0.2-0.9-0.6-1.1-1.2C81.2,29,81.8,27.8,83,27.4C83,27.4,83,27.4,83,27.4z"
		/>
	<path class="st12" d="M86.3,38.2c0.1-0.9,0.1-1.5,0.1-1.5c0,0-1.7-0.4-1.9-2.7c-0.1-1.1,0.1-3,0.3-4.5c0.2-1.4,1.2-2.9,2.5-2.7
		l4.1,1.4c0.4,0.1,0.5,0.4,0.5,0.8l0,0.2l-0.7,6.5L91,38.6c-0.1,1.2-1.2,2.2-2.4,2.1l0,0c-1.3,0-2.4-1.1-2.4-2.4
		C86.3,38.3,86.3,38.3,86.3,38.2z"/>
	<path class="st5" d="M85.3,31.3c0,0.2,0.1,0.3,0.3,0.3c0.2,0,0.3-0.1,0.3-0.2l0,0c0-0.2-0.1-0.3-0.3-0.3
		C85.4,31.1,85.3,31.2,85.3,31.3L85.3,31.3z"/>
	<path class="st5" d="M85.2,30.8c0,0,0.3-0.1,0.6-0.1c0.3,0,0.6,0.2,0.6,0.2c0,0,0-0.1-0.1-0.2c-0.1-0.1-0.3-0.2-0.5-0.2
		s-0.3,0-0.5,0.1C85.2,30.7,85.2,30.8,85.2,30.8z"/>
	<path class="st5" d="M88.1,31.6c0,0.2,0.1,0.3,0.3,0.3c0.2,0,0.3-0.1,0.3-0.2l0,0c0-0.2-0.1-0.3-0.3-0.3
		C88.2,31.3,88.1,31.4,88.1,31.6L88.1,31.6z"/>
	<path class="st5" d="M88.2,30.9c0,0,0.3-0.1,0.6-0.1c0.3,0,0.6,0.2,0.6,0.2c0,0,0-0.1-0.1-0.2c-0.1-0.1-0.3-0.2-0.5-0.2
		c-0.2,0-0.3,0-0.5,0.1C88.2,30.9,88.1,30.9,88.2,30.9z"/>
	<path class="st5" d="M86.9,33.1C86.7,33,86.5,33,86.4,33c-0.1,0-0.2,0-0.2-0.1c0-0.1,0-0.2,0.1-0.2l0.3-0.6
		c0.4-0.8,0.7-1.5,0.6-1.6c0,0-0.4,0.6-0.8,1.5l-0.3,0.6c-0.1,0.1-0.1,0.2-0.1,0.3c0,0.1,0.1,0.1,0.1,0.1c0,0,0.1,0,0.1,0
		C86.5,33.1,86.7,33.1,86.9,33.1z"/>
	<path class="st13" d="M86.4,36.7c1.1,0.1,2.1-0.1,3.1-0.6c0,0-0.9,1.5-3.1,1.1L86.4,36.7z"/>
	<path class="st5" d="M88.2,30.1c0,0.1,0.3,0,0.7,0.1c0.4,0,0.7,0.1,0.7,0.1c0,0,0-0.1-0.2-0.2c-0.2-0.1-0.3-0.2-0.6-0.2
		c-0.2,0-0.4,0-0.6,0.1C88.3,30,88.2,30.1,88.2,30.1z"/>
	<path class="st5" d="M85.3,30.2c0.1,0.1,0.3,0,0.6,0c0.3,0,0.6,0.1,0.6,0c0,0,0-0.1-0.1-0.2c-0.2-0.1-0.3-0.2-0.5-0.2
		c-0.2,0-0.3,0-0.5,0.1C85.3,30,85.2,30.1,85.3,30.2z"/>
	<path class="st5" d="M90.4,26.9c-0.1,0.8-0.8,1.5-1.7,1.4c-0.1,0-0.2,0-0.3,0c-0.3-0.1-0.7-0.3-1-0.1c-0.3,0.2-0.4,0.6-0.7,0.9
		c-0.4,0.3-1-0.1-1.6,0c-0.4,0.1-0.7,0.5-1,0.7c-0.3,0.3-0.7,0.6-1.1,0.4c0-0.3,0.1-0.7,0.2-1c0.1-0.3,0.3-0.6,0.6-0.8
		c0.2-0.1,0.3-0.1,0.5-0.3c0.3-0.3,0.5-0.7,0.7-1c0.3-0.5,0.8-0.7,1.4-0.8c0.5,0,0.9,0.2,1.4,0.1c0.3-0.1,0.6-0.3,0.9-0.3
		c0.6-0.1,1.2,0.4,1.6,0.9"/>
	<path class="st5" d="M88.3,27.7c0.3-0.1,0.9-0.2,1.1-0.4c0.3-0.5,0.9-0.8,1.6-0.7c0.6,0.1,1.1,0.6,1.2,1.2c0.7,0.1,1.4,0.6,1.7,1.3
		c0.3,0.7,0.2,1.6-0.2,2.2c-0.1,0.2-0.2,0.3-0.3,0.5c0.2,0.2,0.3,0.3,0.4,0.5c0.6,1-0.6,1.5-0.6,1.5c0.1,0.7-0.6,0.8-1,0.8
		s-0.5,1.2-0.8,1.2l-0.1-3.4c0,0-0.1,0-0.2,0c-0.8,0.1-0.8-1.4-0.6-1.8c-0.3-0.3-0.5-0.6-0.7-0.8c-0.2-0.5-0.3-1-0.2-1.6
		C89.3,28.2,88.1,27.7,88.3,27.7z"/>
	<path class="st12" d="M91.1,32.5c0-0.3,0.4-0.6,0.8-0.6c0.1,0,0.2,0,0.3,0.1c0.2,0.2,0.4,0.4,0.3,0.9c-0.2,1.4-1.5,0.9-1.5,0.9
		C90.9,33.8,91,33.1,91.1,32.5z"/>
	<path class="st13" d="M91.4,33.4C91.4,33.4,91.4,33.4,91.4,33.4c0.1,0.1,0.2,0.1,0.3,0.1c0.2-0.1,0.3-0.3,0.3-0.5
		c0-0.1,0-0.2,0-0.3c0-0.1-0.1-0.2-0.2-0.2c0,0-0.1,0-0.1,0c0,0,0,0.1,0,0.1s0,0,0-0.1c0,0,0-0.1,0.1-0.1c0,0,0.1,0,0.1,0
		c0.1,0,0.2,0.1,0.2,0.3c0,0.1,0.1,0.3,0,0.4c0,0.3-0.2,0.5-0.4,0.6C91.6,33.6,91.5,33.5,91.4,33.4C91.4,33.4,91.4,33.4,91.4,33.4z"
		/>
	<path class="st11" d="M83.8,31.6c0,0-0.1-0.1-0.3-0.3c-0.3-0.3-0.5-0.6-0.6-1c-0.1-0.3-0.1-0.5,0-0.8c0-0.3,0.2-0.6,0.4-0.8
		c0.5-0.5,1.2-0.7,1.8-0.6c0.1,0,0.1,0,0.2,0c0.1,0,0.1,0,0.2,0.1l0.1,0v-0.1c0-0.2,0-0.3,0.1-0.5c0.1-0.1,0.2-0.3,0.3-0.3
		c0.3-0.2,0.6-0.2,0.9-0.2c0.6,0.1,1.1,0.3,1.6,0.3c0.3,0,0.7-0.1,1-0.3c0.1-0.1,0.1-0.1,0.2-0.2c0,0,0-0.1,0-0.1
		c-0.1,0.1-0.1,0.2-0.2,0.3c-0.3,0.2-0.6,0.3-1,0.3c-0.3,0-0.5,0-0.7-0.1c-0.3-0.1-0.6-0.1-0.8-0.2c-0.2,0-0.3,0-0.5,0
		c-0.2,0-0.3,0.1-0.5,0.2c-0.2,0.1-0.3,0.2-0.4,0.3c-0.1,0.2-0.2,0.3-0.1,0.5l0.1-0.1l-0.2-0.1c-0.1,0-0.1,0-0.2,0
		c-0.7-0.2-1.4,0.1-1.9,0.6c-0.2,0.3-0.3,0.6-0.4,0.8c0,0.3,0,0.6,0,0.8c0.1,0.4,0.3,0.7,0.6,1c0.1,0.1,0.2,0.1,0.3,0.2
		C83.7,31.6,83.8,31.6,83.8,31.6z"/>
	<path class="st11" d="M83.5,26.9c0.1-0.1,0.3-0.2,0.4-0.2s0.3,0,0.5,0c0.2,0,0.4,0.2,0.6,0.3l0.1,0.1l0-0.1
		c0.2-0.6,0.6-0.9,1.1-1.1c0.4-0.1,0.8,0,1.2,0.2c0.3,0.2,0.7,0.3,1,0.4c0.3,0.1,0.5,0.1,0.7,0c0.1,0,0.1,0,0.2-0.1c0,0,0.1,0,0.1,0
		s-0.1,0-0.3,0.1c-0.2,0-0.5,0-0.7,0c-0.3-0.1-0.7-0.2-1-0.4c-0.2-0.1-0.4-0.2-0.6-0.2c-0.2,0-0.5,0-0.7,0c-0.6,0.1-1,0.6-1.2,1.2
		l0.1,0c-0.2-0.2-0.4-0.3-0.6-0.3c-0.2,0-0.3,0-0.6,0c-0.1,0-0.2,0.1-0.3,0.2C83.5,26.9,83.5,26.9,83.5,26.9z"/>
	<path class="st6" d="M87.1,33.7c0.1-0.1,0.2-0.2,0.3-0.2c0.2,0,0.3,0.1,0.4,0.2l0,0c0,0,0,0,0,0l0,0c0,0,0,0.1,0.1,0.2
		c0,0.1-0.1,0.3-0.2,0.3c-0.2,0.1-0.4,0.1-0.6,0C87,34.1,87,33.9,87.1,33.7z"/>
	<path class="st5" d="M87.9,33.5c0,0,0,0.1-0.1,0.2c-0.2,0.3-0.5,0.4-0.8,0.3c-0.1,0-0.2-0.1-0.2,0c0,0,0,0.1,0.2,0.1
		c0.3,0.1,0.7,0,0.9-0.3C87.9,33.6,87.9,33.5,87.9,33.5z"/>
	<path class="st5" d="M93.1,29.7C93.1,29.7,93.1,29.7,93.1,29.7c0.1-0.1,0.2-0.1,0.3-0.2c0.2-0.2,0.3-0.5,0.3-0.7c0-0.2,0-0.4,0-0.6
		c0-0.2-0.2-0.4-0.3-0.6c-0.2-0.2-0.4-0.3-0.6-0.3c-0.3,0-0.5,0.1-0.7,0.3l0.1,0v-0.1c0.2-0.5,0.2-1,0-1.4c-0.2-0.4-0.5-0.6-0.9-0.7
		c-0.3,0-0.6,0-0.8,0.2c0,0-0.1,0.1-0.1,0.2c0,0,0,0,0,0.1c0.1-0.1,0.1-0.1,0.2-0.2c0.2-0.2,0.5-0.2,0.7-0.2
		c0.4,0.1,0.7,0.3,0.9,0.7c0.2,0.4,0.2,0.9,0,1.4v0L92,28l0.1-0.2c0.2-0.2,0.4-0.3,0.6-0.3c0.2,0,0.5,0.1,0.6,0.3
		c0.1,0.1,0.3,0.3,0.3,0.5c0,0.2,0,0.3,0,0.5c0,0.3-0.2,0.5-0.3,0.7C93.2,29.7,93.1,29.7,93.1,29.7z"/>
	<path class="st5" d="M95.4,34.2L95.4,34.2l0.2,0.1c0.1,0,0.3,0.1,0.4,0.1c0.2,0.1,0.5,0.1,0.7,0.2c0.3,0.1,0.6,0.1,0.9,0
		c0.4,0,0.8-0.2,1.1-0.4c0.3-0.3,0.6-0.7,0.6-1.1c0.1-0.5,0-1-0.2-1.4c-0.1-0.3-0.3-0.5-0.5-0.6c-0.2-0.2-0.5-0.3-0.7-0.3
		c-0.2,0-0.4,0.1-0.6,0.2l0,0c0.2-0.2,0.3-0.4,0.3-0.7c0.1-0.3,0.1-0.5,0-0.7c-0.1-0.5-0.3-0.9-0.7-1.1c-0.3-0.2-0.8-0.3-1.2-0.3
		c-0.3,0-0.7,0.2-1,0.4c-0.2,0.2-0.4,0.4-0.6,0.7c-0.1,0.2-0.2,0.4-0.2,0.6c0,0.1,0,0.3,0,0.4c0,0,0,0.1,0,0.1s0,0,0,0
		c0-0.2,0-0.4,0-0.6c0-0.2,0.1-0.4,0.2-0.6c0.1-0.3,0.3-0.5,0.6-0.6c0.3-0.2,0.6-0.3,1-0.3c0.4,0,0.8,0.1,1.1,0.3
		c0.4,0.3,0.6,0.6,0.7,1.1c0,0.2,0,0.5,0,0.7c-0.1,0.2-0.2,0.5-0.3,0.6l0,0c0.1-0.1,0.3-0.2,0.5-0.2c0.3,0,0.5,0.1,0.7,0.3
		c0.2,0.2,0.3,0.4,0.5,0.6c0.2,0.4,0.3,0.9,0.2,1.4c0,0.4-0.3,0.8-0.6,1.1c-0.3,0.2-0.7,0.3-1,0.4c-0.3,0-0.6,0-0.9,0
		c-0.2,0-0.5-0.1-0.7-0.2l-0.4-0.1L95.4,34.2C95.4,34.2,95.4,34.2,95.4,34.2z"/>
	<path class="st5" d="M93.3,36.4c0,0,0.1,0.1,0.2,0.1c0.2,0.1,0.3,0.2,0.5,0.2c0.3,0.1,0.5,0.1,0.8,0.1c0.3,0,0.6-0.1,0.9-0.3
		c0.1-0.1,0.2-0.3,0.3-0.4c0-0.1,0.1-0.3,0.1-0.5c0-0.3-0.1-0.5-0.2-0.8c-0.1-0.2-0.1-0.3-0.2-0.5c0-0.1-0.1-0.1-0.1-0.2
		c0,0.1,0,0.1,0.1,0.2c0,0.1,0.1,0.3,0.2,0.5c0.1,0.2,0.1,0.5,0.1,0.7c0,0.3-0.1,0.6-0.3,0.8c-0.2,0.2-0.5,0.3-0.8,0.3
		c-0.3,0-0.5,0-0.7-0.1C93.5,36.5,93.3,36.3,93.3,36.4z"/>
	<path class="st5" d="M92.6,37.2c-0.1,0-0.1,0-0.2-0.1c-0.1-0.1-0.2-0.3-0.2-0.5c0-0.1,0.1-0.2,0.2-0.3c0.1-0.1,0.3-0.1,0.3,0
		c0,0,0.1,0.1,0.1,0.2c0,0.1,0,0.1-0.1,0.2c-0.1,0-0.1,0-0.2,0c-0.1,0-0.2,0-0.2-0.1c-0.3-0.2-0.4-0.5-0.4-0.8c0-0.3,0-0.5,0.1-0.8
		c0-0.2,0.1-0.3,0.2-0.5c0,0,0.1-0.1,0.2-0.1c0,0,0,0,0,0c0,0-0.1,0-0.1,0.1c0,0-0.1,0.1-0.1,0.2c0,0.1-0.1,0.2-0.1,0.3
		c-0.1,0.3-0.2,0.5-0.2,0.8c0,0.2,0,0.3,0.1,0.5c0.1,0.2,0.2,0.3,0.3,0.4c0.2,0.1,0.3,0.1,0.5,0c0.1,0,0.1-0.1,0.1-0.2
		s0-0.2-0.1-0.2c-0.1,0-0.1-0.1-0.2-0.1c-0.1,0-0.1,0-0.2,0.1c-0.1,0.1-0.2,0.2-0.2,0.3c0,0.2,0.1,0.3,0.2,0.5
		C92.5,37.2,92.5,37.2,92.6,37.2C92.5,37.2,92.6,37.2,92.6,37.2z"/>
	<path class="st11" d="M97.3,34.3C97.3,34.3,97.3,34.3,97.3,34.3c0.2,0,0.2,0,0.3,0c0.2-0.1,0.4-0.3,0.5-0.5c0.1-0.3,0-0.7-0.3-0.9
		c-0.3-0.3-0.7-0.5-1.1-0.4c-0.1,0-0.2,0-0.3,0l0,0c0.1-0.3,0-0.8-0.2-1c-0.1-0.1-0.2-0.2-0.4-0.3c-0.1,0-0.3-0.1-0.4-0.1
		c-0.2,0-0.4,0.1-0.6,0.2c0,0-0.1,0.1-0.1,0.1c0,0,0,0,0,0s0.1,0,0.2-0.1c0.3-0.2,0.6-0.2,0.9-0.1c0.1,0.1,0.3,0.2,0.3,0.3
		c0.2,0.3,0.3,0.6,0.2,1l0,0.1l0.1,0c0.1,0,0.2,0,0.3,0c0.4,0,0.8,0.1,1,0.4c0.2,0.2,0.3,0.6,0.3,0.8c-0.1,0.2-0.2,0.3-0.4,0.5
		C97.4,34.3,97.3,34.3,97.3,34.3z"/>
	<path class="st11" d="M97.5,30.1C97.4,30,97.4,30,97.5,30.1C97.3,30,97.2,30,97.1,30c-0.1,0-0.3,0.1-0.4,0.1
		c-0.2,0.1-0.3,0.3-0.3,0.4l0.1,0c-0.1-0.1-0.3-0.2-0.4-0.2c-0.3,0-0.5,0-0.7,0.2c-0.2,0.1-0.3,0.3-0.4,0.4
		c-0.1,0.1-0.1,0.2-0.2,0.3c0,0,0,0.1-0.1,0.1c0,0,0.1-0.2,0.3-0.4c0.1-0.1,0.3-0.3,0.4-0.4c0.2-0.1,0.4-0.2,0.6-0.1
		c0.2,0,0.3,0.1,0.4,0.2l0,0l0,0c0.1-0.2,0.2-0.3,0.3-0.4c0.1-0.1,0.3-0.1,0.3-0.1C97.2,30.1,97.3,30.1,97.5,30.1z"/>
	<path class="st5" d="M91.3,37l-5.1,0.7L86,39.3c0,0-2.5,4.4-2.8,5.7c-0.2,1.3-1.4,4.5-1.1,6.9c0.3,2.4-0.5,11.6-0.5,11.6h1.3
		l5-12.2L91.3,37z"/>
	<path class="st6" d="M94.8,95.7l1.3,4.6c0,0-4.3,2.5-4.2,3.4l9.1-1.8l-1.7-7.3L94.8,95.7z"/>
	<g class="st15">
		<path class="st4" d="M98.7,99.3c0.2,0,0.3,0.2,0.3,0.3c0,0.2-0.2,0.3-0.3,0.3c-0.2,0-0.3-0.2-0.4-0.4
			C98.4,99.4,98.6,99.3,98.7,99.3"/>
	</g>
	<g class="st15">
		<path class="st4" d="M101,101.9l-0.2-0.7l-8.7,2c-0.2,0.1-0.3,0.3-0.2,0.6L101,101.9z"/>
	</g>
	<path class="st5" d="M95.9,100.3c0,0,0.3,0,0.5,0.1c0.3,0.1,0.4,0.3,0.5,0.2c0,0-0.1-0.3-0.4-0.3C96.1,100.2,95.9,100.3,95.9,100.3
		z"/>
	<path class="st5" d="M95,100.9c0,0,0.2,0.1,0.4,0.2c0.2,0.2,0.3,0.3,0.3,0.3c0,0,0-0.3-0.2-0.5C95.3,100.9,95,100.9,95,100.9z"/>
	<path class="st5" d="M94.8,102.2c0,0,0-0.2-0.1-0.5s-0.4-0.3-0.4-0.2c0,0,0.2,0.1,0.3,0.3C94.7,102,94.7,102.2,94.8,102.2z"/>
	<path class="st5" d="M95.7,99.2c0,0,0.2-0.1,0.5-0.1c0.3,0,0.5,0,0.5,0c0,0-0.2-0.2-0.5-0.1C95.8,99,95.7,99.2,95.7,99.2z"/>
	<g class="st14">
		<polygon points="95,96.6 95.3,97.4 99.7,96.3 99.5,95.6 		"/>
	</g>
	<path class="st5" d="M95.5,98.3c0.2,0,0.3,0,0.5-0.1c0.2-0.1,0.3-0.2,0.5-0.3c0.1-0.1,0.2-0.1,0.2-0.2c0,0,0.1-0.1,0.1-0.1
		c0-0.1,0-0.2,0-0.3c-0.1,0-0.1-0.1-0.2,0c-0.1,0-0.1,0-0.2,0.1c-0.1,0-0.2,0.1-0.3,0.2c-0.1,0.1-0.3,0.2-0.3,0.4
		C95.6,98.2,95.5,98.3,95.5,98.3c0.1,0,0.2-0.1,0.3-0.3c0.1-0.1,0.2-0.2,0.3-0.3c0.1,0,0.2-0.1,0.3-0.1c0.1,0,0.2-0.1,0.2,0
		c0,0,0,0,0,0c0,0,0,0.1-0.1,0.1c-0.1,0.1-0.1,0.1-0.2,0.2c-0.1,0.1-0.3,0.2-0.4,0.3C95.7,98.2,95.6,98.2,95.5,98.3z"/>
	<path class="st5" d="M95.6,98.3c0-0.2,0.1-0.3,0-0.5c0-0.2-0.1-0.3-0.2-0.5c0-0.1-0.1-0.2-0.2-0.3C95.2,97,95,97,94.9,97
		c-0.1,0-0.1,0.1-0.2,0.2c0,0.1,0,0.1,0,0.2c0,0.1,0,0.2,0.1,0.3c0.1,0.2,0.2,0.3,0.3,0.4c0.2,0.2,0.4,0.2,0.4,0.2
		c0,0-0.2-0.1-0.3-0.3c-0.1-0.1-0.2-0.3-0.3-0.4c0-0.1,0-0.2,0-0.3c0-0.1,0-0.2,0-0.2s0.1,0,0.2,0.1c0.1,0.1,0.1,0.1,0.2,0.2
		c0.1,0.1,0.2,0.3,0.2,0.4C95.6,98.2,95.6,98.3,95.6,98.3z"/>
	<path class="st6" d="M81.5,95.4l-0.6,4.7c0,0-5,0.7-5.1,1.6l9.1,1.8l1.2-7.4L81.5,95.4z"/>
	<g class="st15">
		<path class="st4" d="M83.8,100.2c0.2,0.1,0.3,0.3,0.2,0.5c-0.1,0.2-0.3,0.3-0.5,0.2c-0.2-0.1-0.3-0.3-0.2-0.5
			C83.4,100.2,83.6,100.1,83.8,100.2"/>
	</g>
	<g class="st15">
		<path class="st4" d="M84.9,103.5l0.1-0.7l-8.9-1.4c-0.2,0.1-0.4,0.2-0.4,0.4L84.9,103.5z"/>
	</g>
	<path class="st5" d="M80.8,100.1c0,0,0.2,0.1,0.4,0.3c0.2,0.2,0.3,0.4,0.3,0.4c0,0,0-0.3-0.2-0.5C81.1,100.1,80.8,100.1,80.8,100.1
		z"/>
	<path class="st5" d="M79.7,100.4c0,0,0.2,0.2,0.3,0.3c0.1,0.2,0.1,0.4,0.2,0.4c0,0,0.1-0.3,0-0.5C80,100.4,79.7,100.3,79.7,100.4z"
		/>
	<path class="st5" d="M79,101.4c0,0,0.1-0.2,0.1-0.5c-0.1-0.3-0.3-0.4-0.3-0.3c0,0,0.1,0.2,0.1,0.4C79,101.2,79,101.4,79,101.4z"/>
	<path class="st5" d="M81,99c0,0,0.2,0,0.5,0.1c0.3,0,0.4,0.2,0.5,0.1c0,0-0.1-0.2-0.4-0.3C81.2,98.9,81,99,81,99z"/>
	<g class="st14">
		<polygon points="81.4,96.4 81.3,97.2 85.8,97.9 85.9,97.1 		"/>
	</g>
	<path class="st5" d="M81.1,98.1c0.1,0.1,0.3,0.1,0.5,0.1c0.2,0,0.3,0,0.5-0.1c0.1,0,0.2-0.1,0.3-0.1c0.1,0,0.1,0,0.2-0.1
		c0.1-0.1,0.1-0.2,0.1-0.2c0-0.1-0.1-0.1-0.2-0.1c-0.1,0-0.1,0-0.2,0c-0.1,0-0.2,0-0.3,0c-0.2,0-0.3,0.1-0.5,0.2
		C81.3,98,81.2,98.1,81.1,98.1c0.1,0.1,0.2,0,0.5-0.1c0.1-0.1,0.3-0.1,0.5-0.2c0.1,0,0.2,0,0.3,0c0.1,0,0.2,0,0.2,0c0,0,0,0,0,0
		c0,0-0.1,0-0.1,0.1c-0.1,0-0.2,0.1-0.3,0.1c-0.2,0-0.3,0.1-0.5,0.1C81.4,98.1,81.3,98.1,81.1,98.1z"/>
	<path class="st5" d="M81.2,98.2c0,0,0.1-0.1,0.2-0.4c0-0.2,0-0.3,0-0.5c0-0.1,0-0.2-0.1-0.3c0-0.1-0.1-0.3-0.3-0.3
		c-0.1,0-0.2,0-0.2,0.1c0,0,0,0.1-0.1,0.2c0,0.1,0,0.2,0,0.3c0,0.2,0,0.3,0.1,0.5C81,98,81.2,98.1,81.2,98.2
		c0.1-0.1-0.1-0.2-0.2-0.5c-0.1-0.1-0.1-0.3-0.1-0.5c0-0.1,0-0.2,0-0.3c0-0.1,0.1-0.2,0.1-0.2c0,0,0.1,0.1,0.1,0.2
		c0,0.1,0.1,0.2,0.1,0.3c0,0.2,0,0.3,0,0.5C81.2,98,81.2,98.2,81.2,98.2z"/>
	<path class="st5" d="M88.3,81.4c0,0.2-2.1,16.5-2.1,16.5l-6.1-1.1l2.5-16.8L88.3,81.4z"/>
	<path class="st5" d="M95.7,79.6c0.1,0.2,4.3,16.6,4.3,16.6l-5.8,1.3l-4.9-17.7L95.7,79.6z"/>
	<path class="st6" d="M90.3,37.5l1.2-0.4l2.1,2.8l0.6,9.1l-1.4,4.7c0,0,4,8.9,4.1,11.1c0.1,2.2,1.9,22.8,1.9,22.8L80,89l3.5-33.7
		c0,0,0.5-8.3,1-9.5C85,44.7,90.3,37.5,90.3,37.5z"/>
	<path class="st5" d="M91.9,66.7C91.9,66.7,91.9,66.7,91.9,66.7c-0.2,0.1-0.3,0.1-0.3,0.1c-0.3,0-0.6,0-0.8-0.1
		c-0.4-0.2-0.7-0.5-1-0.8c-0.3-0.5-0.5-0.9-0.6-1.4c-0.3-0.9-0.5-1.8-0.5-2.8c0-0.3,0-0.6,0-0.8c0-0.1,0-0.2,0-0.3
		c0,0.1,0,0.2,0,0.3c0,0.2,0,0.5,0,0.8c0,0.9,0.2,1.9,0.5,2.8c0.2,0.5,0.4,1,0.6,1.4c0.2,0.3,0.6,0.6,0.9,0.8
		c0.3,0.1,0.6,0.2,0.8,0.2C91.8,66.7,91.9,66.7,91.9,66.7z"/>
	<path class="st5" d="M98.6,87.6L98.6,87.6l-0.3,0l-1.1,0.1L93.3,88L80,89.1h-0.1V89c0.2-1.4,0.3-3,0.5-4.5
		c0.6-6.4,1.3-12.2,1.7-16.4c0.2-2.1,0.4-3.8,0.5-5c0.1-0.6,0.1-1,0.2-1.4c0-0.2,0-0.3,0-0.3c0,0,0-0.1,0-0.1c0,0,0,0,0,0.1
		s0,0.2,0,0.3c0,0.3-0.1,0.8-0.1,1.4c-0.1,1.2-0.3,2.9-0.5,5c-0.4,4.2-1,10-1.7,16.4c-0.2,1.6-0.3,3.1-0.5,4.5L80,89l13.3-1.1
		l3.9-0.3l1.1-0.1l0.3,0C98.6,87.6,98.6,87.6,98.6,87.6z"/>
	<path class="st5" d="M92.5,38.5L92.5,38.5l-0.2,0.1l-0.6,0.3c-0.3,0.2-0.6,0.3-0.9,0.6c-0.2,0.1-0.3,0.3-0.6,0.4
		c0,0-0.1,0.1-0.1,0.1c0,0,0,0.1,0,0.2c0,0.1,0,0.3,0,0.4c-0.1,0.6-0.2,1.1-0.3,1.7c-0.2,0.6-0.4,1.3-0.7,1.8
		c-0.3,0.6-0.9,1.1-1.5,1.6c-0.3,0.3-0.6,0.5-0.8,0.8c-0.2,0.3-0.3,0.7-0.3,1.1c0.1,0.4,0.2,0.8,0.3,1.1c0.1,0.3,0.2,0.7,0.2,1.1
		c0,0.7-0.1,1.4-0.4,2.1c-0.2,0.6-0.6,1.2-0.9,1.8c-0.3,0.5-0.6,1-0.9,1.4c-0.6,0.9-1,1.6-1.4,2.1c-0.2,0.3-0.3,0.5-0.3,0.6L83.1,58
		c0,0,0,0,0,0s0,0,0-0.1l0.1-0.2c0.1-0.1,0.2-0.3,0.3-0.6c0.3-0.5,0.7-1.2,1.3-2.1c0.3-0.5,0.6-0.9,0.9-1.4c0.3-0.6,0.6-1.1,0.8-1.7
		c0.3-0.7,0.4-1.4,0.3-2.1c0-0.4-0.1-0.7-0.2-1.1c-0.2-0.3-0.3-0.7-0.3-1.1c0-0.4,0-0.8,0.3-1.2c0.2-0.3,0.5-0.6,0.8-0.8
		c0.6-0.5,1.1-0.9,1.5-1.6c0.3-0.6,0.6-1.2,0.7-1.8c0.2-0.6,0.3-1.1,0.3-1.7c0-0.1,0-0.3,0-0.4c0-0.1,0-0.1,0-0.2
		c0-0.1,0.1-0.1,0.1-0.2c0.2-0.1,0.4-0.3,0.6-0.4c0.3-0.2,0.7-0.4,0.9-0.6l0.6-0.3l0.2-0.1C92.5,38.5,92.5,38.5,92.5,38.5z"/>
	<path class="st5" d="M92.3,53.4c-0.2,0-0.4,0-0.6-0.1c-0.5-0.1-0.9-0.3-1.3-0.5c-0.4-0.3-0.7-0.6-1.1-0.9c-0.1-0.1-0.3-0.3-0.3-0.5
		c0.4,0.5,0.9,0.9,1.4,1.3C91.1,53.1,91.7,53.3,92.3,53.4z"/>
	<path class="st5" d="M92.6,53.8c-0.1,0.1-0.3,0.1-0.5,0.1c-0.7,0.1-1.4,0.1-2.2,0c-0.2,0-0.3-0.1-0.4-0.1c0,0,0.7,0.1,1.5,0.1
		C92,53.9,92.6,53.8,92.6,53.8z"/>
	<path class="st5" d="M92.9,39.2c0,0-1.6,0-2.1,0.9c-0.6,0.9-1.6,7.5,1.6,13.2c0.2,0.3,0.3,0.3,0.3,0.3l0.5-1.6c0,0-0.9-6.4-1-7.1
		c-0.1-0.7-0.3-4.8,0.3-4.9c0.2,0,0.3,0,0.5,0c0.7,0,1.4,0.3,2,0.7l0.5,0.3C94.9,40.1,94,39.4,92.9,39.2z"/>
	<g class="st14">
		<path d="M91.8,42c-1.7,3.1-1.8,6.8-1.2,10.2c0,0.4,0.2,0.8,0.4,1.2c0.3,0.3,0.7,0.5,1.1,0.3c0.3-0.2,0.5-0.1,0.6-0.4
			c0.3-1,0.6-2.2,1-3.1C93.1,47.4,92.5,44.7,91.8,42z"/>
	</g>
	<g class="st14">
		<path d="M88.7,61.4c-0.4,2.2-0.1,4.6,0.8,6.7c0.2,0.5,0.5,0.9,0.8,1.3c0.4,0.3,0.9,0.6,1.4,0.5c0.6-0.1,1.1-0.6,1.4-1.2
			c0.2-0.5,0.2-1-0.1-1.3c-0.4-0.4-1.1-0.3-1.6-0.5c-1-0.2-1.8-1.1-2.2-2c-0.4-1-0.5-2-0.6-3.1"/>
	</g>
	<path class="st6" d="M99.6,51.2c0-1.4-2.7-6.9-2.7-6.9s-1.2-2.8-1.5-3.3c-0.6-1.2-2.4-1.3-3-1l0.5,6.8l1.4,4.9l-2.8,5.4l3.5,3.5
		C99.8,60.1,99.7,52.6,99.6,51.2z"/>
	<path class="st5" d="M98.5,52c-0.2,0-0.4,0-0.6-0.1c-0.4-0.1-0.9-0.3-1.5-0.5c-0.3-0.1-0.6-0.1-0.8-0.1c-0.2,0-0.5,0.1-0.6,0.2
		s-0.3,0.3-0.5,0.4c0-0.1,0-0.1,0.1-0.2c0.1-0.1,0.2-0.3,0.3-0.3c0.2-0.1,0.4-0.2,0.7-0.3c0.3,0,0.6,0,0.9,0.1
		c0.6,0.1,1.1,0.4,1.5,0.5C98.2,52,98.5,52,98.5,52z"/>
	<path class="st5" d="M96.8,49.9c-0.2,0-0.3,0.1-0.5,0.1c-0.4,0-0.8,0.2-1.2,0.3c-0.3,0.2-0.6,0.6-0.7,0.9c0,0.2,0,0.3,0,0.5
		c0,0,0,0,0-0.1c0-0.1,0-0.3,0-0.4c0.1-0.4,0.4-0.8,0.8-1s0.8-0.3,1.2-0.3C96.4,49.9,96.7,49.9,96.8,49.9z"/>
	<path class="st5" d="M95.5,60.7c-0.1,0-0.2-0.1-0.3-0.1c-0.2-0.1-0.5-0.2-0.7-0.3c-0.3-0.2-0.6-0.4-0.9-0.6c-0.3-0.3-0.7-0.6-1-0.9
		c-0.3-0.3-0.6-0.7-0.8-1.1c-0.2-0.3-0.4-0.6-0.6-1c-0.1-0.2-0.2-0.5-0.3-0.7c0-0.1-0.1-0.2-0.1-0.3c0,0,0.2,0.3,0.5,0.9
		c0.2,0.3,0.3,0.6,0.6,0.9c0.3,0.4,0.6,0.7,0.8,1.1c0.3,0.3,0.6,0.6,1,0.9c0.3,0.2,0.6,0.5,0.9,0.6C95.1,60.6,95.5,60.7,95.5,60.7z"
		/>
	<path class="st5" d="M94.3,51.9c-0.1-0.2-0.2-0.5-0.3-0.7c-0.2-0.5-0.3-1.1-0.6-1.8c-0.2-0.7-0.3-1.4-0.5-1.8
		c-0.1-0.3-0.1-0.5-0.1-0.8c0.1,0.3,0.2,0.5,0.2,0.7c0.1,0.5,0.3,1.1,0.5,1.8c0.2,0.7,0.4,1.3,0.6,1.8
		C94.2,51.4,94.3,51.6,94.3,51.9z"/>
	<path class="st5" d="M91.5,57.2c0,0,0.6-1.2,1.4-2.7c0.8-1.5,1.4-2.7,1.4-2.6c0,0-0.6,1.2-1.4,2.7C92.2,56,91.5,57.2,91.5,57.2z"/>
	<path class="st5" d="M89.6,84.9c0,0,0.1-2.2,0.4-4.8c0.3-2.7,0.5-4.8,0.5-4.8s-0.1,2.2-0.4,4.8C89.9,82.8,89.6,84.9,89.6,84.9z"/>
	<path class="st5" d="M91.7,85.8c-0.2-0.7-0.3-1.4-0.5-2.1s-0.3-1.4-0.4-2.1c0.2,0.7,0.3,1.4,0.5,2.1C91.5,84.4,91.6,85.1,91.7,85.8
		z"/>
	<path class="st3" d="M89.9,80.2c0,0-2,0-4.4-0.1c-2.4-0.1-4.4-0.2-4.4-0.2c0,0,2,0,4.4,0.1C88,80.1,89.9,80.2,89.9,80.2z"/>
	<path class="st3" d="M98.1,81.1c0,0-1.8,0-4,0c-2.2-0.1-4-0.1-4-0.2c0,0,1.8,0,4,0C96.2,81,98.1,81.1,98.1,81.1z"/>
	<path class="st3" d="M90.1,77.8c0,0-2,0-4.4-0.1c-2.5-0.1-4.4-0.2-4.4-0.3c0,0,2,0,4.4,0.2C88.1,77.7,90.1,77.8,90.1,77.8z"/>
	<path class="st3" d="M97.9,78.9c0,0-1.7,0-3.9-0.1c-2.2-0.1-3.9-0.2-3.9-0.2c0,0,1.7,0,3.9,0.1C96.1,78.8,97.9,78.8,97.9,78.9z"/>
</g>
<g id="freepik--Plant--inject-46">
	<path class="st6" d="M13.4,98.4c0.2-0.6-0.3-1.3-0.7-1.7c-0.5-0.5-1-0.9-1.3-1.5c-0.4-1,0.1-2.2-0.6-3.1c-0.4-0.5-1.1-0.6-1.4-1.2
		c-0.2-0.3-0.3-0.6-0.3-0.9c-0.4-1.7-1.2-3.2-2.4-4.4C6.7,87,7,88.5,7.7,89.8c0.3,0.5,0.6,1,0.7,1.6c0.2,0.9-0.4,1.9-0.2,2.8
		c0.3,1.1,1.4,1.8,1.5,2.8c0,0.9-0.8,1.7-0.7,2.6c0,0.4,0.2,0.8,0.4,1.1c0.7,1.2,1.7,2,3.3,2l1.9,0.1L13.4,98.4z"/>
	<g class="st14">
		<path d="M13.4,98.4c0.2-0.6-0.3-1.3-0.7-1.7c-0.5-0.5-1-0.9-1.3-1.5c-0.4-1,0.1-2.2-0.6-3.1c-0.4-0.5-1.1-0.6-1.4-1.2
			c-0.2-0.3-0.3-0.6-0.3-0.9c-0.4-1.7-1.2-3.2-2.4-4.4C6.7,87,7,88.5,7.7,89.8c0.3,0.5,0.6,1,0.7,1.6c0.2,0.9-0.4,1.9-0.2,2.8
			c0.3,1.1,1.4,1.8,1.5,2.8c0,0.9-0.8,1.7-0.7,2.6c0,0.4,0.2,0.8,0.4,1.1c0.7,1.2,1.7,2,3.3,2l1.9,0.1L13.4,98.4z"/>
	</g>
	<path class="st5" d="M15.1,102.9c0.2,0,0.3,0,0.6,0c0.2,0,0.4-0.1,0.6-0.2c0.3-0.1,0.6-0.3,0.8-0.4c0.1-0.1,0.3-0.3,0.3-0.4
		c0.1-0.2,0.1-0.4,0.1-0.6c0-0.2,0-0.4,0-0.6c0-0.2,0.1-0.4,0.3-0.6c0.2-0.4,0.6-0.8,0.7-1.3c0.1-0.6,0-1.1,0-1.7
		c-0.1-0.6-0.2-1.2,0-1.8s0.6-1.1,0.8-1.8c0.2-0.7,0.1-1.4,0.2-2.2c0-0.4,0.1-0.7,0.3-1.1c0.2-0.3,0.4-0.7,0.6-1
		c0.3-0.7,0.4-1.6,0.5-2.4c0-0.4,0.1-0.8,0.1-1.2c0-0.4,0.1-0.8,0.2-1.2c0.1-0.4,0.3-0.8,0.5-1.2c0.1-0.2,0.2-0.4,0.2-0.6
		c0-0.2,0-0.5,0.1-0.7c0-0.5,0-0.9,0-1.4c0-0.5-0.1-0.9-0.2-1.4c0,0,0,0,0-0.1l0-0.1l-0.1,0c-0.4,0.2-0.8,0.5-1.1,0.9
		c-0.3,0.3-0.5,0.8-0.6,1.2c-0.3,0.8-0.5,1.7-0.6,2.5s-0.4,1.6-0.8,2.4c-0.2,0.3-0.5,0.6-0.7,1c-0.3,0.3-0.4,0.7-0.5,1.1
		c-0.1,0.8,0.3,1.6,0.3,2.2c0,0.3-0.2,0.7-0.3,1c-0.2,0.3-0.4,0.6-0.6,0.9c-0.2,0.3-0.4,0.6-0.5,0.9c-0.1,0.3-0.2,0.6-0.3,1
		c0,0.6,0,1.3,0,1.9c-0.1,0.6-0.2,1.1-0.5,1.6c-0.2,0.5-0.5,0.9-0.7,1.3c-0.1,0.2-0.2,0.4-0.3,0.6c-0.1,0.2-0.1,0.4-0.2,0.6
		c-0.1,0.3-0.1,0.7,0,1.1c0,0.5,0.3,1,0.6,1.4c0,0.1,0.1,0.1,0.2,0.2c0,0,0.1,0.1,0.1,0.1L15.1,102.9c-0.1-0.1-0.3-0.2-0.4-0.3
		c-0.3-0.4-0.5-0.9-0.5-1.4c0-0.3,0-0.7,0-1.1c0-0.2,0.1-0.4,0.2-0.6c0.1-0.2,0.2-0.4,0.3-0.6c0.2-0.4,0.5-0.8,0.7-1.3
		c0.3-0.5,0.5-1.1,0.5-1.6c0-0.6,0-1.2,0-1.9c0-0.3,0.1-0.6,0.2-0.9c0.1-0.3,0.3-0.6,0.5-0.9c0.2-0.3,0.4-0.6,0.6-0.9
		c0.2-0.3,0.3-0.7,0.4-1.1c0.1-0.8-0.3-1.5-0.3-2.2c0.1-0.4,0.2-0.7,0.5-1.1c0.2-0.3,0.5-0.6,0.7-1c0.4-0.7,0.7-1.6,0.8-2.4
		c0.2-0.8,0.3-1.7,0.6-2.5c0.2-0.4,0.3-0.8,0.6-1.1c0.3-0.3,0.6-0.6,1-0.8l-0.1,0c0,0,0,0,0,0.1c0,0.5,0.1,0.9,0.2,1.4
		c0,0.5,0.1,0.9,0,1.3c0,0.2,0,0.5-0.1,0.6c-0.1,0.2-0.1,0.4-0.2,0.6c-0.2,0.4-0.3,0.8-0.5,1.2c-0.1,0.4-0.2,0.8-0.2,1.3
		c0,0.4-0.1,0.8-0.1,1.2c-0.1,0.8-0.2,1.7-0.5,2.3c-0.2,0.3-0.4,0.7-0.6,1c-0.2,0.3-0.3,0.7-0.3,1.1c0,0.7,0.1,1.5-0.1,2.2
		c-0.2,0.7-0.6,1.2-0.8,1.8s-0.1,1.3,0,1.9s0.2,1.1,0.1,1.7c-0.1,0.5-0.5,0.9-0.7,1.3c-0.1,0.2-0.2,0.4-0.3,0.6c0,0.2,0,0.4,0,0.6
		s0,0.4-0.1,0.6c-0.1,0.2-0.2,0.3-0.3,0.4c-0.2,0.2-0.5,0.3-0.8,0.4c-0.2,0.1-0.4,0.1-0.6,0.2C15.5,102.9,15.4,102.9,15.1,102.9
		L15.1,102.9z"/>
	<path class="st5" d="M21.3,80.1C21.3,80.1,21.2,80.1,21.3,80.1c0,0.1-0.1,0.2-0.1,0.3c0,0.2-0.1,0.4-0.2,0.7
		c-0.1,0.3-0.3,0.6-0.4,1c-0.2,0.5-0.3,0.9-0.5,1.4c-0.2,0.5-0.3,1.1-0.4,1.7c-0.1,0.6-0.3,1.3-0.6,1.9c-0.2,0.3-0.3,0.6-0.5,1
		c-0.1,0.3-0.2,0.7-0.3,1.1c-0.1,0.8-0.3,1.6-0.4,2.4c-0.4,1.6-0.8,3.1-1.1,4.5l-0.9,3.6c-0.3,1-0.5,1.9-0.6,2.5
		c-0.1,0.3-0.1,0.5-0.2,0.7c0,0.1,0,0.1,0,0.2c0,0,0,0,0,0.1c0,0,0,0,0-0.1l0-0.2l0.2-0.7c0.2-0.6,0.4-1.4,0.6-2.5
		c0.3-1,0.6-2.3,0.9-3.6c0.3-1.4,0.7-2.9,1.1-4.5c0.2-0.8,0.3-1.6,0.4-2.4c0-0.4,0.1-0.7,0.3-1.1c0.1-0.3,0.3-0.6,0.5-1
		c0.3-0.6,0.5-1.3,0.6-1.9c0.1-0.6,0.3-1.2,0.4-1.7c0.1-0.5,0.3-1,0.5-1.4c0.2-0.4,0.3-0.7,0.4-1s0.1-0.5,0.1-0.7c0-0.1,0-0.1,0-0.2
		C21.3,80.1,21.3,80.1,21.3,80.1z"/>
	<path class="st6" d="M15.5,102.9c1.3-0.8,1.7-3,1.1-4.4c-0.6-1.4-1.4-2.6-1.6-4.1c-0.1-1.1,0.3-2.3,0-3.4c-0.3-1.5-1.8-2.6-1.8-4.2
		c0-0.8,0.5-1.7,0.5-2.5c0-1.1-0.8-1.9-1.4-2.8c-0.8-1.4-0.8-3.1-1.1-4.7s-0.9-3.3-2.3-4.1c-0.2,1.4-0.6,2.2-0.5,4.1
		c0,0.6,0.8,1.9,0.9,3.3c0.1,0.8,0.1,1.7,0.2,2.6c0,0.8,0.1,1.7,0.4,2.5c0.2,0.6,0.6,1.1,0.8,1.8c0.3,1.2-0.1,2.4,0.2,3.6
		c0.2,1,0.9,1.9,1.1,2.9c0.2,1.4-0.7,2.9-0.3,4.3c0.2,0.7,0.8,1.2,0.9,1.9c0.1,0.6,0,1.1,0.1,1.7C12.9,102.2,14.6,102.9,15.5,102.9"
		/>
	<path class="st5" d="M9.3,74.1C9.3,74.1,9.3,74.1,9.3,74.1l0,0.3c0,0.2,0.1,0.5,0.1,0.8c0.1,0.4,0.3,0.8,0.4,1.3
		c0.2,0.5,0.3,1.1,0.5,1.7c0.2,0.6,0.3,1.4,0.4,2.2c0.1,0.8,0.3,1.7,0.6,2.4c0.2,0.4,0.4,0.8,0.5,1.2c0.2,0.5,0.3,0.9,0.3,1.4
		c0.1,1,0.2,2,0.4,3l1.1,5.6c0.3,1.7,0.7,3.3,0.9,4.6c0.3,1.3,0.5,2.4,0.6,3.1c0.1,0.3,0.1,0.6,0.2,0.8c0,0.1,0,0.2,0,0.2
		c0,0,0,0,0,0.1c0,0,0,0,0-0.1c0-0.1,0-0.1,0-0.2c0-0.2-0.1-0.5-0.2-0.8c-0.2-0.7-0.3-1.8-0.6-3.1c-0.3-1.3-0.6-2.9-0.9-4.6
		c-0.3-1.7-0.7-3.6-1.1-5.6c-0.2-1-0.3-1.9-0.4-2.9c0-0.5-0.1-0.9-0.3-1.4c-0.2-0.5-0.3-0.8-0.6-1.3c-0.3-0.8-0.6-1.6-0.6-2.4
		c-0.1-0.8-0.3-1.5-0.4-2.2c-0.1-0.6-0.3-1.2-0.5-1.7c-0.2-0.5-0.3-0.9-0.4-1.3c-0.1-0.3-0.1-0.6-0.2-0.8
		C9.3,74.3,9.3,74.2,9.3,74.1C9.3,74.1,9.3,74.1,9.3,74.1z"/>
</g>
<g>
	<polygon class="st6" points="48.3,82.1 48.4,82.3 48.6,82.3 48.5,82.5 48.6,82.7 48.3,82.6 48.1,82.7 48.2,82.5 48,82.3 48.2,82.3 
			"/>
	<polygon class="st6" points="49.2,82.1 49.3,82.3 49.6,82.3 49.4,82.5 49.4,82.7 49.2,82.6 49,82.7 49.1,82.5 48.9,82.3 49.1,82.3 
			"/>
	<polygon class="st6" points="50.1,82.1 50.2,82.3 50.4,82.3 50.3,82.5 50.3,82.7 50.1,82.6 49.9,82.7 50,82.5 49.8,82.3 50,82.3 	
		"/>
	<polygon class="st6" points="51,82.1 51.1,82.3 51.3,82.3 51.2,82.5 51.2,82.7 51,82.6 50.8,82.7 50.8,82.5 50.7,82.3 50.9,82.3 	
		"/>
	<polygon class="st10" points="51.9,82.1 52,82.3 52.2,82.3 52,82.5 52.1,82.7 51.9,82.6 51.7,82.7 51.7,82.5 51.6,82.3 51.8,82.3 	
		"/>
	<rect x="47.9" y="80.4" class="st7" width="18.8" height="1.1"/>
	<text transform="matrix(1 0 0 1 47.9403 81.2437)" class="st8 st9">Room 3</text>
</g>
</svg>
