<?xml version="1.0" encoding="utf-8"?>
<!-- Generator: Adobe Illustrator 25.2.0, SVG Export Plug-In . SVG Version: 6.00 Build 0)  -->
<svg version="1.1" id="Layer_1" xmlns="http://www.w3.org/2000/svg" xmlns:xlink="http://www.w3.org/1999/xlink" x="0px" y="0px"
	 viewBox="0 0 552.9 552.9" style="enable-background:new 0 0 552.9 552.9;" xml:space="preserve">
<style type="text/css">
	.st0{fill:#C9252F;}
</style>
<g>
	<path class="st0" d="M380.7,161.4c1.3,1,8.5,3.9,36.4-7.3c7-2.8,26.2-12.8,52.6-27c-27.2-35.2-63.8-62.7-106.1-78.8
		c1,38.9,2.2,67.7,3.5,76.5C372,159,380.7,161.4,380.7,161.4"/>
	<path class="st0" d="M400.4,196.4c-0.1,1.7,1,9.4,24.6,27.9c9,7.1,47,30.6,95.5,60c0.1-2.6,0.4-5.2,0.4-7.8
		c0-52.7-16.9-101.5-45.3-141.5c-26,16.1-44.7,28-50.6,32.7C401.1,186.6,400.2,194.1,400.4,196.4"/>
	<path class="st0" d="M337.4,161.9c0,0,8.9-2.9,13.9-37.2c1.3-9,2.5-39.2,3.5-79.7c-24.6-8.4-51-13.1-78.4-13.1
		c-48.1,0-92.7,14.1-130.5,38c74.3,41.4,141.9,78.4,156.4,84.1C325.6,163.4,334.3,162.9,337.4,161.9"/>
	<path class="st0" d="M380.6,230.7c0,0-9.1,2.2-13.6,36.5c-2.5,19.2-5,132.3-6.4,238.4c88.7-32.6,153.1-115,159.4-213.5
		c-51.1-28.1-92.1-50-103-54.3C389,226.8,382,229.8,380.6,230.7"/>
	<path class="st0" d="M337.4,230.1c-3.2-0.9-12-1.3-35,7.8c-20.6,8.2-148.2,79-250.1,136.1C90,460.4,176.1,520.9,276.4,520.9
		c28.5,0,55.8-5.1,81.2-14.1c-1.4-106.4-3.9-220.3-6.4-239.6C346.9,232.8,337.4,230.1,337.4,230.1"/>
	<path class="st0" d="M318.9,198c0.7-4.2-4.7-14.7-24.5-30.3C282,157.9,215,117,141.3,72.8C75.4,116.6,32,191.4,32,276.4
		c0,34.1,7,66.5,19.5,95.9C152,312.8,277.2,238,294.5,224.3C313.9,209.1,318,201.3,318.9,198"/>
</g>
</svg>
